<svg xmlns="http://www.w3.org/2000/svg" xmlns:xlink="http://www.w3.org/1999/xlink" width="110" zoomAndPan="magnify" viewBox="0 0 82.5 44.999999" height="60" preserveAspectRatio="xMidYMid meet" version="1.0"><defs><clipPath id="a15073c2f8"><path d="M 19.480469 13 L 26 13 L 26 20 L 19.480469 20 Z M 19.480469 13 " clip-rule="nonzero"/></clipPath><clipPath id="e15b22b126"><path d="M 57 14 L 62.980469 14 L 62.980469 20 L 57 20 Z M 57 14 " clip-rule="nonzero"/></clipPath><clipPath id="7ca7c9f6d8"><path d="M 38 0.136719 L 45 0.136719 L 45 7 L 38 7 Z M 38 0.136719 " clip-rule="nonzero"/></clipPath><clipPath id="8b80036143"><path d="M 19.480469 22 L 27 22 L 27 35 L 19.480469 35 Z M 19.480469 22 " clip-rule="nonzero"/></clipPath><clipPath id="2f1475e965"><path d="M 35 39 L 48 39 L 48 44.863281 L 35 44.863281 Z M 35 39 " clip-rule="nonzero"/></clipPath></defs><path fill="#ffca4f" d="M 47.855469 21.949219 C 47.855469 21.5625 47.824219 21.175781 47.753906 20.792969 C 47.683594 20.40625 47.582031 20.035156 47.441406 19.667969 C 47.304688 19.304688 47.136719 18.953125 46.9375 18.621094 C 46.738281 18.285156 46.511719 17.972656 46.253906 17.679688 C 45.996094 17.386719 45.71875 17.117188 45.414062 16.875 C 45.109375 16.632812 44.785156 16.417969 44.441406 16.234375 C 44.097656 16.050781 43.742188 15.898438 43.371094 15.777344 C 43 15.65625 42.621094 15.570312 42.238281 15.519531 C 41.851562 15.46875 41.464844 15.453125 41.074219 15.46875 C 40.683594 15.488281 40.300781 15.539062 39.921875 15.628906 C 39.542969 15.714844 39.171875 15.835938 38.816406 15.988281 C 38.457031 16.144531 38.117188 16.328125 37.792969 16.542969 C 37.46875 16.757812 37.164062 17 36.886719 17.269531 C 36.605469 17.542969 36.351562 17.835938 36.121094 18.148438 C 35.894531 18.464844 35.695312 18.800781 35.527344 19.152344 C 35.359375 19.503906 35.222656 19.867188 35.121094 20.242188 C 35.019531 20.617188 34.953125 21 34.917969 21.386719 C 34.882812 21.777344 34.886719 22.164062 34.921875 22.550781 C 34.957031 22.941406 35.027344 23.320312 35.132812 23.699219 C 35.238281 24.074219 35.375 24.4375 35.546875 24.785156 C 35.714844 25.136719 35.917969 25.46875 36.144531 25.78125 C 36.375 26.097656 36.632812 26.390625 36.914062 26.65625 C 37.199219 26.925781 37.5 27.164062 37.828125 27.378906 C 38.152344 27.59375 38.496094 27.773438 38.855469 27.925781 L 38.855469 30.960938 C 38.855469 31.296875 38.917969 31.617188 39.046875 31.925781 C 39.175781 32.234375 39.355469 32.507812 39.59375 32.746094 C 39.828125 32.980469 40.101562 33.164062 40.410156 33.292969 C 40.71875 33.417969 41.042969 33.484375 41.375 33.484375 C 41.710938 33.484375 42.03125 33.417969 42.339844 33.292969 C 42.648438 33.164062 42.921875 32.980469 43.15625 32.746094 C 43.394531 32.507812 43.578125 32.234375 43.703125 31.925781 C 43.832031 31.617188 43.894531 31.296875 43.894531 30.960938 L 43.894531 27.925781 C 44.484375 27.679688 45.023438 27.351562 45.511719 26.945312 C 46.003906 26.535156 46.425781 26.066406 46.777344 25.535156 C 47.128906 25.003906 47.398438 24.433594 47.582031 23.824219 C 47.765625 23.210938 47.855469 22.589844 47.855469 21.949219 Z M 47.855469 21.949219 " fill-opacity="1" fill-rule="nonzero"/><path fill="#b38d37" d="M 42.09375 29.878906 L 40.65625 29.878906 L 40.65625 25.769531 L 37.898438 21.625 C 37.710938 21.355469 37.710938 21.082031 37.898438 20.8125 C 38.082031 20.53125 38.339844 20.429688 38.667969 20.507812 L 41.375 21.230469 L 44.082031 20.507812 C 44.390625 20.429688 44.640625 20.519531 44.832031 20.773438 C 45.027344 21.027344 45.042969 21.292969 44.882812 21.570312 L 43.441406 24.089844 L 42.1875 23.371094 L 42.816406 22.339844 L 41.546875 22.671875 C 41.433594 22.699219 41.316406 22.699219 41.203125 22.671875 L 40.128906 22.40625 L 41.972656 25.179688 C 42.050781 25.292969 42.089844 25.417969 42.09375 25.554688 Z M 42.09375 29.878906 " fill-opacity="1" fill-rule="nonzero"/><path fill="#596c80" d="M 43.894531 29.160156 L 43.894531 30.960938 C 43.894531 31.296875 43.832031 31.617188 43.703125 31.925781 C 43.578125 32.234375 43.394531 32.507812 43.15625 32.746094 C 42.921875 32.980469 42.648438 33.164062 42.339844 33.292969 C 42.03125 33.417969 41.710938 33.484375 41.375 33.484375 C 41.042969 33.484375 40.71875 33.417969 40.410156 33.292969 C 40.101562 33.164062 39.828125 32.980469 39.59375 32.746094 C 39.355469 32.507812 39.175781 32.234375 39.046875 31.925781 C 38.917969 31.617188 38.855469 31.296875 38.855469 30.960938 L 38.855469 29.160156 Z M 43.894531 29.160156 " fill-opacity="1" fill-rule="nonzero"/><g clip-path="url(#a15073c2f8)"><path fill="#e6676d" d="M 25.53125 16.839844 C 25.53125 17.222656 25.457031 17.589844 25.3125 17.945312 C 25.164062 18.296875 24.957031 18.609375 24.6875 18.878906 C 24.417969 19.148438 24.105469 19.359375 23.753906 19.503906 C 23.398438 19.652344 23.03125 19.722656 22.648438 19.722656 C 22.269531 19.722656 21.902344 19.652344 21.546875 19.503906 C 21.195312 19.359375 20.882812 19.148438 20.613281 18.878906 C 20.34375 18.609375 20.136719 18.296875 19.988281 17.945312 C 19.84375 17.589844 19.769531 17.222656 19.769531 16.839844 C 19.769531 16.457031 19.84375 16.089844 19.988281 15.738281 C 20.136719 15.382812 20.34375 15.070312 20.613281 14.800781 C 20.882812 14.53125 21.195312 14.324219 21.546875 14.175781 C 21.902344 14.03125 22.269531 13.957031 22.648438 13.957031 C 23.03125 13.957031 23.398438 14.03125 23.753906 14.175781 C 24.105469 14.324219 24.417969 14.53125 24.6875 14.800781 C 24.957031 15.070312 25.164062 15.382812 25.3125 15.738281 C 25.457031 16.089844 25.53125 16.457031 25.53125 16.839844 Z M 25.53125 16.839844 " fill-opacity="1" fill-rule="nonzero"/></g><g clip-path="url(#e15b22b126)"><path fill="#e6676d" d="M 62.980469 16.90625 C 62.980469 17.289062 62.90625 17.65625 62.761719 18.007812 C 62.617188 18.363281 62.40625 18.671875 62.136719 18.945312 C 61.867188 19.214844 61.554688 19.421875 61.203125 19.570312 C 60.851562 19.714844 60.484375 19.789062 60.101562 19.789062 C 59.71875 19.789062 59.351562 19.714844 58.996094 19.570312 C 58.644531 19.421875 58.332031 19.214844 58.0625 18.945312 C 57.792969 18.671875 57.585938 18.363281 57.4375 18.007812 C 57.292969 17.65625 57.21875 17.289062 57.21875 16.90625 C 57.21875 16.523438 57.292969 16.15625 57.4375 15.800781 C 57.585938 15.449219 57.792969 15.136719 58.0625 14.867188 C 58.332031 14.597656 58.644531 14.386719 58.996094 14.242188 C 59.351562 14.09375 59.71875 14.023438 60.101562 14.023438 C 60.484375 14.023438 60.851562 14.09375 61.203125 14.242188 C 61.554688 14.386719 61.867188 14.597656 62.136719 14.867188 C 62.40625 15.136719 62.617188 15.449219 62.761719 15.800781 C 62.90625 16.15625 62.980469 16.523438 62.980469 16.90625 Z M 62.980469 16.90625 " fill-opacity="1" fill-rule="nonzero"/></g><g clip-path="url(#7ca7c9f6d8)"><path fill="#e6676d" d="M 44.257812 3.210938 C 44.257812 3.59375 44.183594 3.960938 44.035156 4.3125 C 43.890625 4.667969 43.683594 4.980469 43.414062 5.25 C 43.140625 5.519531 42.832031 5.726562 42.476562 5.875 C 42.125 6.019531 41.757812 6.09375 41.375 6.09375 C 40.992188 6.09375 40.625 6.019531 40.273438 5.875 C 39.917969 5.726562 39.609375 5.519531 39.339844 5.25 C 39.066406 4.980469 38.859375 4.667969 38.714844 4.3125 C 38.566406 3.960938 38.496094 3.59375 38.496094 3.210938 C 38.496094 2.828125 38.566406 2.460938 38.714844 2.105469 C 38.859375 1.753906 39.066406 1.441406 39.339844 1.171875 C 39.609375 0.902344 39.917969 0.691406 40.273438 0.546875 C 40.625 0.402344 40.992188 0.328125 41.375 0.328125 C 41.757812 0.328125 42.125 0.402344 42.476562 0.546875 C 42.832031 0.691406 43.140625 0.902344 43.414062 1.171875 C 43.683594 1.441406 43.890625 1.753906 44.035156 2.105469 C 44.183594 2.460938 44.257812 2.828125 44.257812 3.210938 Z M 44.257812 3.210938 " fill-opacity="1" fill-rule="nonzero"/></g><path fill="#e6676d" d="M 32.734375 39.25 C 32.734375 39.632812 32.660156 40 32.511719 40.351562 C 32.367188 40.707031 32.160156 41.019531 31.890625 41.289062 C 31.617188 41.558594 31.308594 41.765625 30.953125 41.914062 C 30.601562 42.058594 30.234375 42.132812 29.851562 42.132812 C 29.46875 42.132812 29.101562 42.058594 28.75 41.914062 C 28.398438 41.765625 28.085938 41.558594 27.816406 41.289062 C 27.546875 41.019531 27.335938 40.707031 27.191406 40.351562 C 27.042969 40 26.972656 39.632812 26.972656 39.25 C 26.972656 38.867188 27.042969 38.5 27.191406 38.144531 C 27.335938 37.792969 27.546875 37.480469 27.816406 37.210938 C 28.085938 36.941406 28.398438 36.730469 28.75 36.585938 C 29.101562 36.441406 29.46875 36.367188 29.851562 36.367188 C 30.234375 36.367188 30.601562 36.441406 30.953125 36.585938 C 31.308594 36.730469 31.617188 36.941406 31.890625 37.210938 C 32.160156 37.480469 32.367188 37.792969 32.511719 38.144531 C 32.660156 38.5 32.734375 38.867188 32.734375 39.25 Z M 32.734375 39.25 " fill-opacity="1" fill-rule="nonzero"/><path fill="#e6676d" d="M 55.777344 39.25 C 55.777344 39.632812 55.707031 40 55.558594 40.351562 C 55.414062 40.707031 55.207031 41.019531 54.933594 41.289062 C 54.664062 41.558594 54.355469 41.765625 54 41.914062 C 53.648438 42.058594 53.28125 42.132812 52.898438 42.132812 C 52.515625 42.132812 52.148438 42.058594 51.796875 41.914062 C 51.441406 41.765625 51.132812 41.558594 50.863281 41.289062 C 50.589844 41.019531 50.382812 40.707031 50.238281 40.351562 C 50.089844 40 50.019531 39.632812 50.019531 39.25 C 50.019531 38.867188 50.089844 38.5 50.238281 38.144531 C 50.382812 37.792969 50.589844 37.480469 50.863281 37.210938 C 51.132812 36.941406 51.441406 36.730469 51.796875 36.585938 C 52.148438 36.441406 52.515625 36.367188 52.898438 36.367188 C 53.28125 36.367188 53.648438 36.441406 54 36.585938 C 54.355469 36.730469 54.664062 36.941406 54.933594 37.210938 C 55.207031 37.480469 55.414062 37.792969 55.558594 38.144531 C 55.707031 38.5 55.777344 38.867188 55.777344 39.25 Z M 55.777344 39.25 " fill-opacity="1" fill-rule="nonzero"/><path fill="#ffca4f" d="M 50.019531 21.230469 L 52.179688 21.230469 L 52.179688 22.671875 L 50.019531 22.671875 Z M 50.019531 21.230469 " fill-opacity="1" fill-rule="nonzero"/><path fill="#ffca4f" d="M 30.574219 21.230469 L 32.734375 21.230469 L 32.734375 22.671875 L 30.574219 22.671875 Z M 30.574219 21.230469 " fill-opacity="1" fill-rule="nonzero"/><path fill="#ffca4f" d="M 46.976562 15.320312 L 48.507812 13.789062 L 49.523438 14.808594 L 47.996094 16.339844 Z M 46.976562 15.320312 " fill-opacity="1" fill-rule="nonzero"/><path fill="#ffca4f" d="M 33.230469 29.089844 L 34.757812 27.558594 L 35.777344 28.578125 L 34.25 30.105469 Z M 33.230469 29.089844 " fill-opacity="1" fill-rule="nonzero"/><path fill="#ffca4f" d="M 46.984375 28.574219 L 48 27.554688 L 49.527344 29.082031 L 48.511719 30.101562 Z M 46.984375 28.574219 " fill-opacity="1" fill-rule="nonzero"/><path fill="#ffca4f" d="M 33.226562 14.8125 L 34.242188 13.796875 L 35.773438 15.324219 L 34.753906 16.34375 Z M 33.226562 14.8125 " fill-opacity="1" fill-rule="nonzero"/><path fill="#ffca4f" d="M 40.65625 11.140625 L 42.09375 11.140625 L 42.09375 13.300781 L 40.65625 13.300781 Z M 40.65625 11.140625 " fill-opacity="1" fill-rule="nonzero"/><path fill="#8e9fb3" d="M 31.738281 4.953125 C 29.011719 6.4375 26.75 8.445312 24.949219 10.972656 L 26.113281 11.808594 C 27.796875 9.449219 29.917969 7.585938 32.464844 6.207031 L 33.539062 8.054688 L 35.410156 3.628906 L 30.644531 3.066406 Z M 31.738281 4.953125 " fill-opacity="1" fill-rule="nonzero"/><path fill="#8e9fb3" d="M 57.59375 11.578125 L 57.105469 6.8125 L 55.492188 8.292969 C 53.171875 6 50.457031 4.367188 47.347656 3.390625 L 46.929688 4.765625 C 49.789062 5.671875 52.289062 7.171875 54.433594 9.273438 L 52.875 10.714844 Z M 57.59375 11.578125 " fill-opacity="1" fill-rule="nonzero"/><g clip-path="url(#8b80036143)"><path fill="#8e9fb3" d="M 25.191406 26.277344 L 21.859375 22.792969 L 19.472656 26.996094 L 21.632812 26.730469 C 22.214844 29.632812 23.378906 32.273438 25.136719 34.65625 L 26.292969 33.808594 C 24.683594 31.617188 23.605469 29.1875 23.0625 26.519531 Z M 25.191406 26.277344 " fill-opacity="1" fill-rule="nonzero"/></g><path fill="#8e9fb3" d="M 61.539062 22.671875 L 60.101562 22.671875 C 60.101562 25.597656 59.449219 28.367188 58.140625 30.980469 L 56.320312 29.964844 L 56.96875 34.730469 L 61.355469 32.761719 L 59.417969 31.679688 C 60.832031 28.84375 61.542969 25.84375 61.539062 22.671875 Z M 61.539062 22.671875 " fill-opacity="1" fill-rule="nonzero"/><g clip-path="url(#2f1475e965)"><path fill="#8e9fb3" d="M 39.667969 41.316406 L 40.027344 39.277344 L 35.742188 41.441406 L 39.019531 44.949219 L 39.410156 42.789062 C 40.066406 42.851562 40.71875 42.890625 41.375 42.890625 C 43.414062 42.890625 45.40625 42.59375 47.351562 41.988281 L 46.921875 40.613281 C 44.550781 41.324219 42.132812 41.558594 39.667969 41.316406 Z M 39.667969 41.316406 " fill-opacity="1" fill-rule="nonzero"/></g></svg>