<svg xmlns="http://www.w3.org/2000/svg" xmlns:xlink="http://www.w3.org/1999/xlink" width="420" zoomAndPan="magnify" viewBox="0 0 315 112.499997" height="150" preserveAspectRatio="xMidYMid meet" version="1.0"><defs><g/><clipPath id="09f8ed6ea7"><path d="M 0.695312 0 L 314.300781 0 L 314.300781 112.003906 L 0.695312 112.003906 Z M 0.695312 0 " clip-rule="nonzero"/></clipPath></defs><g clip-path="url(#09f8ed6ea7)"><path fill="#ffffff" d="M 0.695312 0 L 314.304688 0 L 314.304688 112.003906 L 0.695312 112.003906 Z M 0.695312 0 " fill-opacity="1" fill-rule="nonzero"/><path fill="#f7f7f9" d="M 0.695312 0 L 314.304688 0 L 314.304688 112.003906 L 0.695312 112.003906 Z M 0.695312 0 " fill-opacity="1" fill-rule="nonzero"/></g><g fill="#2a388f" fill-opacity="0.302"><g transform="translate(62.253103, 95.438508)"><g><path d="M 16.984375 -8.09375 L 16.984375 -2.71875 C 16.984375 -2.25 16.945312 -1.84375 16.875 -1.5 C 16.8125 -1.15625 16.675781 -0.875 16.46875 -0.65625 C 16.257812 -0.4375 15.960938 -0.269531 15.578125 -0.15625 C 15.203125 -0.0507812 14.695312 0 14.0625 0 L 5.625 0 C 5 0 4.488281 -0.0546875 4.09375 -0.171875 C 3.707031 -0.285156 3.40625 -0.453125 3.1875 -0.671875 C 2.96875 -0.898438 2.816406 -1.179688 2.734375 -1.515625 C 2.660156 -1.847656 2.625 -2.242188 2.625 -2.703125 L 2.625 -8.09375 L 1.015625 -8.09375 C 0.742188 -8.09375 0.609375 -8.234375 0.609375 -8.515625 L 0.609375 -10.078125 C 0.609375 -10.347656 0.742188 -10.484375 1.015625 -10.484375 L 2.625 -10.484375 L 2.625 -22.234375 C 2.625 -23.628906 2.769531 -24.84375 3.0625 -25.875 C 3.351562 -26.914062 3.75 -27.804688 4.25 -28.546875 C 4.75 -29.296875 5.332031 -29.910156 6 -30.390625 C 6.675781 -30.867188 7.40625 -31.25 8.1875 -31.53125 C 8.96875 -31.8125 9.773438 -32.003906 10.609375 -32.109375 C 11.441406 -32.210938 12.273438 -32.265625 13.109375 -32.265625 C 13.816406 -32.265625 14.5625 -32.21875 15.34375 -32.125 C 16.132812 -32.03125 16.894531 -31.910156 17.625 -31.765625 C 18.363281 -31.617188 19.050781 -31.441406 19.6875 -31.234375 C 20.320312 -31.035156 20.859375 -30.832031 21.296875 -30.625 C 21.398438 -30.570312 21.507812 -30.492188 21.625 -30.390625 C 21.738281 -30.285156 21.796875 -30.109375 21.796875 -29.859375 L 21.796875 -28.484375 C 21.796875 -28.316406 21.765625 -28.21875 21.703125 -28.1875 C 21.640625 -28.15625 21.582031 -28.140625 21.53125 -28.140625 C 21.363281 -28.140625 21.179688 -28.175781 20.984375 -28.25 C 20.785156 -28.332031 20.492188 -28.375 20.109375 -28.375 C 19.679688 -28.375 19.273438 -28.285156 18.890625 -28.109375 C 18.503906 -27.929688 18.171875 -27.625 17.890625 -27.1875 C 17.609375 -26.75 17.382812 -26.148438 17.21875 -25.390625 C 17.0625 -24.640625 16.984375 -23.695312 16.984375 -22.5625 L 16.984375 -10.484375 L 20.859375 -10.484375 C 21.140625 -10.484375 21.28125 -10.347656 21.28125 -10.078125 L 21.28125 -8.515625 C 21.28125 -8.234375 21.140625 -8.09375 20.859375 -8.09375 Z M 16.984375 -8.09375 "/></g></g></g><g fill="#2a388f" fill-opacity="0.302"><g transform="translate(84.048631, 95.438508)"><g><path d="M 1.796875 -29.15625 C 1.796875 -29.59375 1.832031 -29.984375 1.90625 -30.328125 C 1.976562 -30.671875 2.125 -30.953125 2.34375 -31.171875 C 2.570312 -31.390625 2.878906 -31.554688 3.265625 -31.671875 C 3.648438 -31.796875 4.15625 -31.859375 4.78125 -31.859375 L 13.296875 -31.859375 C 13.898438 -31.859375 14.378906 -31.800781 14.734375 -31.6875 C 15.097656 -31.582031 15.382812 -31.414062 15.59375 -31.1875 C 15.800781 -30.96875 15.941406 -30.691406 16.015625 -30.359375 C 16.085938 -30.023438 16.125 -29.628906 16.125 -29.171875 L 16.125 -2.671875 C 16.125 -2.222656 16.082031 -1.832031 16 -1.5 C 15.925781 -1.175781 15.785156 -0.898438 15.578125 -0.671875 C 15.367188 -0.441406 15.078125 -0.269531 14.703125 -0.15625 C 14.335938 -0.0507812 13.859375 0 13.265625 0 L 4.78125 0 C 4.15625 0 3.648438 -0.0546875 3.265625 -0.171875 C 2.878906 -0.285156 2.570312 -0.453125 2.34375 -0.671875 C 2.125 -0.898438 1.976562 -1.179688 1.90625 -1.515625 C 1.832031 -1.847656 1.796875 -2.242188 1.796875 -2.703125 Z M 1.796875 -29.15625 "/></g></g></g><g fill="#2a388f" fill-opacity="0.302"><g transform="translate(101.955574, 95.438508)"><g><path d="M 9.921875 0 C 9.222656 0 8.519531 -0.0390625 7.8125 -0.125 C 7.101562 -0.21875 6.425781 -0.363281 5.78125 -0.5625 C 5.144531 -0.769531 4.546875 -1.035156 3.984375 -1.359375 C 3.429688 -1.679688 2.945312 -2.082031 2.53125 -2.5625 C 2.125 -3.039062 1.800781 -3.601562 1.5625 -4.25 C 1.332031 -4.90625 1.21875 -5.65625 1.21875 -6.5 C 1.21875 -7.625 1.429688 -8.585938 1.859375 -9.390625 C 2.296875 -10.191406 2.875 -10.859375 3.59375 -11.390625 C 4.3125 -11.921875 5.132812 -12.328125 6.0625 -12.609375 C 7 -12.898438 7.96875 -13.085938 8.96875 -13.171875 L 8.96875 -14.5 C 8.96875 -15.007812 8.898438 -15.410156 8.765625 -15.703125 C 8.640625 -16.003906 8.472656 -16.226562 8.265625 -16.375 C 8.066406 -16.53125 7.847656 -16.628906 7.609375 -16.671875 C 7.367188 -16.722656 7.140625 -16.75 6.921875 -16.75 C 6.660156 -16.75 6.382812 -16.707031 6.09375 -16.625 C 5.800781 -16.550781 5.519531 -16.457031 5.25 -16.34375 C 4.976562 -16.238281 4.71875 -16.117188 4.46875 -15.984375 C 4.226562 -15.859375 4.019531 -15.742188 3.84375 -15.640625 C 3.769531 -15.585938 3.703125 -15.539062 3.640625 -15.5 C 3.578125 -15.457031 3.507812 -15.4375 3.4375 -15.4375 C 3.320312 -15.4375 3.210938 -15.519531 3.109375 -15.6875 L 2.453125 -16.75 C 2.390625 -16.832031 2.359375 -16.925781 2.359375 -17.03125 C 2.359375 -17.132812 2.398438 -17.222656 2.484375 -17.296875 C 2.566406 -17.378906 2.644531 -17.445312 2.71875 -17.5 C 3.144531 -17.800781 3.6875 -18.109375 4.34375 -18.421875 C 5.007812 -18.734375 5.753906 -19.007812 6.578125 -19.25 C 7.398438 -19.5 8.289062 -19.703125 9.25 -19.859375 C 10.21875 -20.015625 11.210938 -20.09375 12.234375 -20.09375 C 13.203125 -20.09375 14.148438 -20.054688 15.078125 -19.984375 C 16.003906 -19.921875 16.878906 -19.78125 17.703125 -19.5625 C 18.523438 -19.351562 19.273438 -19.050781 19.953125 -18.65625 C 20.640625 -18.257812 21.234375 -17.738281 21.734375 -17.09375 C 22.234375 -16.445312 22.617188 -15.648438 22.890625 -14.703125 C 23.160156 -13.753906 23.296875 -12.617188 23.296875 -11.296875 L 23.296875 -2.625 C 23.296875 -2.195312 23.253906 -1.816406 23.171875 -1.484375 C 23.097656 -1.148438 22.953125 -0.875 22.734375 -0.65625 C 22.515625 -0.4375 22.207031 -0.269531 21.8125 -0.15625 C 21.425781 -0.0507812 20.921875 0 20.296875 0 Z M 8.96875 -10.703125 C 8.03125 -10.703125 7.242188 -10.582031 6.609375 -10.34375 C 5.972656 -10.113281 5.460938 -9.800781 5.078125 -9.40625 C 4.691406 -9.019531 4.410156 -8.570312 4.234375 -8.0625 C 4.066406 -7.550781 3.984375 -7.019531 3.984375 -6.46875 C 3.984375 -5.925781 4.066406 -5.410156 4.234375 -4.921875 C 4.410156 -4.441406 4.691406 -4.019531 5.078125 -3.65625 C 5.460938 -3.289062 5.972656 -3.003906 6.609375 -2.796875 C 7.242188 -2.585938 8.03125 -2.484375 8.96875 -2.484375 Z M 8.96875 -10.703125 "/></g></g></g><g fill="#2a388f" fill-opacity="0.302"><g transform="translate(127.036951, 95.438508)"><g><path d="M 15.65625 -20.59375 C 16.488281 -20.59375 17.316406 -20.539062 18.140625 -20.4375 C 18.972656 -20.34375 19.757812 -20.21875 20.5 -20.0625 C 21.25 -19.914062 21.929688 -19.742188 22.546875 -19.546875 C 23.160156 -19.359375 23.664062 -19.175781 24.0625 -19 C 24.125 -18.976562 24.191406 -18.941406 24.265625 -18.890625 C 24.335938 -18.835938 24.375 -18.738281 24.375 -18.59375 C 24.375 -18.550781 24.363281 -18.5 24.34375 -18.4375 C 24.332031 -18.375 24.320312 -18.304688 24.3125 -18.234375 L 24.078125 -17.09375 C 24.046875 -16.9375 24.007812 -16.84375 23.96875 -16.8125 C 23.925781 -16.78125 23.882812 -16.765625 23.84375 -16.765625 C 23.78125 -16.765625 23.65625 -16.78125 23.46875 -16.8125 C 23.289062 -16.851562 23.097656 -16.875 22.890625 -16.875 C 22.148438 -16.875 21.566406 -16.675781 21.140625 -16.28125 C 20.710938 -15.882812 20.441406 -15.195312 20.328125 -14.21875 L 19.234375 -5.140625 C 19.128906 -4.328125 18.859375 -3.570312 18.421875 -2.875 C 17.992188 -2.175781 17.367188 -1.5625 16.546875 -1.03125 C 15.734375 -0.5 14.726562 -0.0820312 13.53125 0.21875 C 12.332031 0.53125 10.925781 0.6875 9.3125 0.6875 C 8.300781 0.6875 7.316406 0.625 6.359375 0.5 C 5.398438 0.375 4.515625 0.222656 3.703125 0.046875 C 2.890625 -0.128906 2.179688 -0.300781 1.578125 -0.46875 C 0.984375 -0.644531 0.535156 -0.785156 0.234375 -0.890625 C 0.128906 -0.921875 0.0507812 -0.957031 0 -1 C -0.0625 -1.039062 -0.09375 -1.113281 -0.09375 -1.21875 C -0.09375 -1.269531 -0.0859375 -1.328125 -0.078125 -1.390625 C -0.0664062 -1.460938 -0.046875 -1.546875 -0.015625 -1.640625 L 0.21875 -2.71875 C 0.238281 -2.820312 0.28125 -2.90625 0.34375 -2.96875 C 0.414062 -3.039062 0.535156 -3.078125 0.703125 -3.078125 C 1.128906 -3.078125 1.554688 -3.097656 1.984375 -3.140625 C 2.421875 -3.179688 2.820312 -3.300781 3.1875 -3.5 C 3.5625 -3.695312 3.890625 -3.992188 4.171875 -4.390625 C 4.453125 -4.796875 4.644531 -5.363281 4.75 -6.09375 L 6.109375 -15.453125 C 6.253906 -16.441406 6.617188 -17.265625 7.203125 -17.921875 C 7.785156 -18.585938 8.503906 -19.117188 9.359375 -19.515625 C 10.222656 -19.910156 11.195312 -20.1875 12.28125 -20.34375 C 13.375 -20.507812 14.5 -20.59375 15.65625 -20.59375 Z M 15.65625 -20.59375 "/></g></g></g><g fill="#2a388f" fill-opacity="0.302"><g transform="translate(151.301725, 95.438508)"><g><path d="M 16.125 -19.546875 C 16.40625 -19.765625 16.742188 -19.941406 17.140625 -20.078125 C 17.546875 -20.222656 17.988281 -20.296875 18.46875 -20.296875 C 19.71875 -20.296875 20.6875 -19.867188 21.375 -19.015625 C 22.070312 -18.160156 22.421875 -16.90625 22.421875 -15.25 L 22.421875 -0.90625 C 22.421875 -0.6875 22.390625 -0.515625 22.328125 -0.390625 C 22.273438 -0.273438 22.207031 -0.1875 22.125 -0.125 C 22.039062 -0.0625 21.9375 -0.0234375 21.8125 -0.015625 C 21.695312 -0.00390625 21.582031 0 21.46875 0 L 20.21875 0 C 19.882812 0 19.664062 -0.09375 19.5625 -0.28125 C 19.46875 -0.476562 19.421875 -0.6875 19.421875 -0.90625 L 19.421875 -15.4375 C 19.421875 -16.175781 19.285156 -16.738281 19.015625 -17.125 C 18.753906 -17.519531 18.332031 -17.71875 17.75 -17.71875 C 17.457031 -17.71875 17.15625 -17.632812 16.84375 -17.46875 C 16.539062 -17.3125 16.300781 -17.140625 16.125 -16.953125 L 16.125 -2.71875 C 16.125 -2.269531 16.097656 -1.875 16.046875 -1.53125 C 15.992188 -1.195312 15.867188 -0.914062 15.671875 -0.6875 C 15.484375 -0.457031 15.207031 -0.285156 14.84375 -0.171875 C 14.476562 -0.0546875 13.984375 0 13.359375 0 L 4.359375 0 C 3.847656 0 3.425781 -0.0546875 3.09375 -0.171875 C 2.769531 -0.285156 2.507812 -0.453125 2.3125 -0.671875 C 2.113281 -0.898438 1.976562 -1.179688 1.90625 -1.515625 C 1.832031 -1.847656 1.796875 -2.242188 1.796875 -2.703125 L 1.796875 -29.15625 C 1.796875 -29.59375 1.832031 -29.984375 1.90625 -30.328125 C 1.976562 -30.671875 2.125 -30.953125 2.34375 -31.171875 C 2.570312 -31.390625 2.878906 -31.554688 3.265625 -31.671875 C 3.648438 -31.796875 4.15625 -31.859375 4.78125 -31.859375 L 13.296875 -31.859375 C 13.878906 -31.859375 14.351562 -31.804688 14.71875 -31.703125 C 15.09375 -31.597656 15.382812 -31.429688 15.59375 -31.203125 C 15.800781 -30.972656 15.941406 -30.691406 16.015625 -30.359375 C 16.085938 -30.023438 16.125 -29.625 16.125 -29.15625 Z M 16.125 -19.546875 "/></g></g></g><g fill="#2a388f" fill-opacity="0.302"><g transform="translate(175.508176, 95.438508)"><g><path d="M 15.171875 -9.84375 C 15.171875 -8.53125 15.304688 -7.4375 15.578125 -6.5625 C 15.859375 -5.695312 16.210938 -5.007812 16.640625 -4.5 C 17.066406 -3.988281 17.523438 -3.628906 18.015625 -3.421875 C 18.515625 -3.210938 18.976562 -3.109375 19.40625 -3.109375 C 19.726562 -3.109375 20.023438 -3.148438 20.296875 -3.234375 C 20.578125 -3.316406 20.816406 -3.410156 21.015625 -3.515625 C 21.222656 -3.628906 21.398438 -3.726562 21.546875 -3.8125 C 21.691406 -3.90625 21.800781 -3.953125 21.875 -3.953125 C 21.988281 -3.953125 22.066406 -3.929688 22.109375 -3.890625 C 22.160156 -3.847656 22.21875 -3.773438 22.28125 -3.671875 L 22.96875 -2.625 C 23.03125 -2.519531 23.0625 -2.429688 23.0625 -2.359375 C 23.0625 -2.265625 23.035156 -2.191406 22.984375 -2.140625 C 22.929688 -2.085938 22.878906 -2.039062 22.828125 -2 C 22.398438 -1.707031 21.875 -1.394531 21.25 -1.0625 C 20.632812 -0.726562 19.914062 -0.425781 19.09375 -0.15625 C 18.269531 0.113281 17.347656 0.335938 16.328125 0.515625 C 15.316406 0.703125 14.21875 0.796875 13.03125 0.796875 C 12.0625 0.796875 11.085938 0.71875 10.109375 0.5625 C 9.140625 0.40625 8.207031 0.15625 7.3125 -0.1875 C 6.425781 -0.539062 5.597656 -0.992188 4.828125 -1.546875 C 4.066406 -2.097656 3.40625 -2.765625 2.84375 -3.546875 C 2.28125 -4.328125 1.835938 -5.238281 1.515625 -6.28125 C 1.191406 -7.332031 1.03125 -8.519531 1.03125 -9.84375 C 1.03125 -11.164062 1.191406 -12.347656 1.515625 -13.390625 C 1.835938 -14.429688 2.28125 -15.34375 2.84375 -16.125 C 3.40625 -16.914062 4.066406 -17.585938 4.828125 -18.140625 C 5.597656 -18.691406 6.425781 -19.140625 7.3125 -19.484375 C 8.207031 -19.835938 9.140625 -20.09375 10.109375 -20.25 C 11.085938 -20.40625 12.0625 -20.484375 13.03125 -20.484375 C 14.09375 -20.484375 15.113281 -20.398438 16.09375 -20.234375 C 17.082031 -20.066406 17.992188 -19.847656 18.828125 -19.578125 C 19.671875 -19.316406 20.425781 -19.023438 21.09375 -18.703125 C 21.757812 -18.390625 22.300781 -18.082031 22.71875 -17.78125 C 22.769531 -17.738281 22.820312 -17.691406 22.875 -17.640625 C 22.925781 -17.585938 22.953125 -17.515625 22.953125 -17.421875 C 22.953125 -17.328125 22.914062 -17.238281 22.84375 -17.15625 L 22.171875 -16.109375 C 22.109375 -16.003906 22.050781 -15.929688 22 -15.890625 C 21.957031 -15.847656 21.878906 -15.828125 21.765625 -15.828125 C 21.679688 -15.828125 21.570312 -15.863281 21.4375 -15.9375 C 21.3125 -16.019531 21.148438 -16.109375 20.953125 -16.203125 C 20.765625 -16.304688 20.539062 -16.398438 20.28125 -16.484375 C 20.019531 -16.566406 19.726562 -16.609375 19.40625 -16.609375 C 18.976562 -16.609375 18.515625 -16.5 18.015625 -16.28125 C 17.523438 -16.070312 17.066406 -15.707031 16.640625 -15.1875 C 16.210938 -14.664062 15.859375 -13.96875 15.578125 -13.09375 C 15.304688 -12.226562 15.171875 -11.144531 15.171875 -9.84375 Z M 15.171875 -9.84375 "/></g></g></g><g fill="#2a388f" fill-opacity="0.302"><g transform="translate(198.956348, 95.438508)"><g><path d="M 9.921875 0 C 9.222656 0 8.519531 -0.0390625 7.8125 -0.125 C 7.101562 -0.21875 6.425781 -0.363281 5.78125 -0.5625 C 5.144531 -0.769531 4.546875 -1.035156 3.984375 -1.359375 C 3.429688 -1.679688 2.945312 -2.082031 2.53125 -2.5625 C 2.125 -3.039062 1.800781 -3.601562 1.5625 -4.25 C 1.332031 -4.90625 1.21875 -5.65625 1.21875 -6.5 C 1.21875 -7.625 1.429688 -8.585938 1.859375 -9.390625 C 2.296875 -10.191406 2.875 -10.859375 3.59375 -11.390625 C 4.3125 -11.921875 5.132812 -12.328125 6.0625 -12.609375 C 7 -12.898438 7.96875 -13.085938 8.96875 -13.171875 L 8.96875 -14.5 C 8.96875 -15.007812 8.898438 -15.410156 8.765625 -15.703125 C 8.640625 -16.003906 8.472656 -16.226562 8.265625 -16.375 C 8.066406 -16.53125 7.847656 -16.628906 7.609375 -16.671875 C 7.367188 -16.722656 7.140625 -16.75 6.921875 -16.75 C 6.660156 -16.75 6.382812 -16.707031 6.09375 -16.625 C 5.800781 -16.550781 5.519531 -16.457031 5.25 -16.34375 C 4.976562 -16.238281 4.71875 -16.117188 4.46875 -15.984375 C 4.226562 -15.859375 4.019531 -15.742188 3.84375 -15.640625 C 3.769531 -15.585938 3.703125 -15.539062 3.640625 -15.5 C 3.578125 -15.457031 3.507812 -15.4375 3.4375 -15.4375 C 3.320312 -15.4375 3.210938 -15.519531 3.109375 -15.6875 L 2.453125 -16.75 C 2.390625 -16.832031 2.359375 -16.925781 2.359375 -17.03125 C 2.359375 -17.132812 2.398438 -17.222656 2.484375 -17.296875 C 2.566406 -17.378906 2.644531 -17.445312 2.71875 -17.5 C 3.144531 -17.800781 3.6875 -18.109375 4.34375 -18.421875 C 5.007812 -18.734375 5.753906 -19.007812 6.578125 -19.25 C 7.398438 -19.5 8.289062 -19.703125 9.25 -19.859375 C 10.21875 -20.015625 11.210938 -20.09375 12.234375 -20.09375 C 13.203125 -20.09375 14.148438 -20.054688 15.078125 -19.984375 C 16.003906 -19.921875 16.878906 -19.78125 17.703125 -19.5625 C 18.523438 -19.351562 19.273438 -19.050781 19.953125 -18.65625 C 20.640625 -18.257812 21.234375 -17.738281 21.734375 -17.09375 C 22.234375 -16.445312 22.617188 -15.648438 22.890625 -14.703125 C 23.160156 -13.753906 23.296875 -12.617188 23.296875 -11.296875 L 23.296875 -2.625 C 23.296875 -2.195312 23.253906 -1.816406 23.171875 -1.484375 C 23.097656 -1.148438 22.953125 -0.875 22.734375 -0.65625 C 22.515625 -0.4375 22.207031 -0.269531 21.8125 -0.15625 C 21.425781 -0.0507812 20.921875 0 20.296875 0 Z M 8.96875 -10.703125 C 8.03125 -10.703125 7.242188 -10.582031 6.609375 -10.34375 C 5.972656 -10.113281 5.460938 -9.800781 5.078125 -9.40625 C 4.691406 -9.019531 4.410156 -8.570312 4.234375 -8.0625 C 4.066406 -7.550781 3.984375 -7.019531 3.984375 -6.46875 C 3.984375 -5.925781 4.066406 -5.410156 4.234375 -4.921875 C 4.410156 -4.441406 4.691406 -4.019531 5.078125 -3.65625 C 5.460938 -3.289062 5.972656 -3.003906 6.609375 -2.796875 C 7.242188 -2.585938 8.03125 -2.484375 8.96875 -2.484375 Z M 8.96875 -10.703125 "/></g></g></g><g fill="#2a388f" fill-opacity="0.302"><g transform="translate(224.037725, 95.438508)"><g><path d="M 1.796875 -17.203125 C 1.796875 -17.648438 1.832031 -18.046875 1.90625 -18.390625 C 1.976562 -18.734375 2.125 -19.015625 2.34375 -19.234375 C 2.570312 -19.453125 2.878906 -19.617188 3.265625 -19.734375 C 3.648438 -19.859375 4.15625 -19.921875 4.78125 -19.921875 L 13.296875 -19.921875 C 13.898438 -19.921875 14.378906 -19.859375 14.734375 -19.734375 C 15.097656 -19.617188 15.382812 -19.441406 15.59375 -19.203125 C 15.800781 -18.972656 15.941406 -18.679688 16.015625 -18.328125 C 16.085938 -17.984375 16.125 -17.578125 16.125 -17.109375 L 16.125 -15.671875 L 20.4375 -19.875 C 20.71875 -20.144531 20.984375 -20.28125 21.234375 -20.28125 C 21.378906 -20.28125 21.503906 -20.25 21.609375 -20.1875 C 21.722656 -20.132812 21.816406 -20.066406 21.890625 -19.984375 L 22.765625 -19.078125 C 22.960938 -18.878906 23.0625 -18.664062 23.0625 -18.4375 C 23.0625 -18.289062 23.019531 -18.144531 22.9375 -18 C 22.851562 -17.851562 22.722656 -17.707031 22.546875 -17.5625 L 16.125 -12.578125 L 16.125 -2.734375 C 16.125 -2.285156 16.085938 -1.890625 16.015625 -1.546875 C 15.953125 -1.203125 15.8125 -0.914062 15.59375 -0.6875 C 15.375 -0.457031 15.054688 -0.285156 14.640625 -0.171875 C 14.222656 -0.0546875 13.660156 0 12.953125 0 L 4.78125 0 C 4.15625 0 3.648438 -0.0546875 3.265625 -0.171875 C 2.878906 -0.285156 2.570312 -0.453125 2.34375 -0.671875 C 2.125 -0.898438 1.976562 -1.179688 1.90625 -1.515625 C 1.832031 -1.847656 1.796875 -2.242188 1.796875 -2.703125 Z M 1.796875 -17.203125 "/></g></g></g><g fill="#2a388f" fill-opacity="0.302"><g transform="translate(245.638824, 95.438508)"><g><path d="M 23.859375 -2.703125 C 23.859375 -2.242188 23.816406 -1.847656 23.734375 -1.515625 C 23.660156 -1.179688 23.515625 -0.898438 23.296875 -0.671875 C 23.078125 -0.453125 22.769531 -0.285156 22.375 -0.171875 C 21.988281 -0.0546875 21.484375 0 20.859375 0 L 12.375 0 C 11.425781 -0.0195312 10.488281 -0.101562 9.5625 -0.25 C 8.632812 -0.40625 7.75 -0.640625 6.90625 -0.953125 C 6.070312 -1.273438 5.296875 -1.691406 4.578125 -2.203125 C 3.859375 -2.710938 3.234375 -3.332031 2.703125 -4.0625 C 2.179688 -4.800781 1.769531 -5.664062 1.46875 -6.65625 C 1.175781 -7.644531 1.03125 -8.785156 1.03125 -10.078125 C 1.03125 -11.671875 1.253906 -13.039062 1.703125 -14.1875 C 2.160156 -15.332031 2.773438 -16.289062 3.546875 -17.0625 C 4.328125 -17.84375 5.234375 -18.460938 6.265625 -18.921875 C 7.296875 -19.378906 8.382812 -19.710938 9.53125 -19.921875 L 9.53125 -29.125 C 9.53125 -29.582031 9.5625 -29.984375 9.625 -30.328125 C 9.6875 -30.671875 9.820312 -30.957031 10.03125 -31.1875 C 10.238281 -31.414062 10.523438 -31.582031 10.890625 -31.6875 C 11.253906 -31.800781 11.738281 -31.859375 12.34375 -31.859375 L 20.859375 -31.859375 C 21.484375 -31.859375 21.988281 -31.796875 22.375 -31.671875 C 22.769531 -31.554688 23.078125 -31.390625 23.296875 -31.171875 C 23.515625 -30.953125 23.660156 -30.671875 23.734375 -30.328125 C 23.816406 -29.984375 23.859375 -29.59375 23.859375 -29.15625 Z M 3.796875 -10.046875 C 3.796875 -9.085938 3.90625 -8.191406 4.125 -7.359375 C 4.34375 -6.523438 4.679688 -5.785156 5.140625 -5.140625 C 5.597656 -4.503906 6.191406 -3.976562 6.921875 -3.5625 C 7.648438 -3.144531 8.519531 -2.878906 9.53125 -2.765625 L 9.53125 -17.421875 C 8.519531 -17.304688 7.648438 -17.035156 6.921875 -16.609375 C 6.191406 -16.191406 5.597656 -15.660156 5.140625 -15.015625 C 4.679688 -14.367188 4.34375 -13.625 4.125 -12.78125 C 3.90625 -11.9375 3.796875 -11.023438 3.796875 -10.046875 Z M 3.796875 -10.046875 "/></g></g></g><g fill="#2a388f" fill-opacity="0.302"><g transform="translate(271.284052, 95.438508)"><g><path d="M 15.65625 -20.59375 C 16.488281 -20.59375 17.316406 -20.539062 18.140625 -20.4375 C 18.972656 -20.34375 19.757812 -20.21875 20.5 -20.0625 C 21.25 -19.914062 21.929688 -19.742188 22.546875 -19.546875 C 23.160156 -19.359375 23.664062 -19.175781 24.0625 -19 C 24.125 -18.976562 24.191406 -18.941406 24.265625 -18.890625 C 24.335938 -18.835938 24.375 -18.738281 24.375 -18.59375 C 24.375 -18.550781 24.363281 -18.5 24.34375 -18.4375 C 24.332031 -18.375 24.320312 -18.304688 24.3125 -18.234375 L 24.078125 -17.09375 C 24.046875 -16.9375 24.007812 -16.84375 23.96875 -16.8125 C 23.925781 -16.78125 23.882812 -16.765625 23.84375 -16.765625 C 23.78125 -16.765625 23.65625 -16.78125 23.46875 -16.8125 C 23.289062 -16.851562 23.097656 -16.875 22.890625 -16.875 C 22.148438 -16.875 21.566406 -16.675781 21.140625 -16.28125 C 20.710938 -15.882812 20.441406 -15.195312 20.328125 -14.21875 L 19.234375 -5.140625 C 19.128906 -4.328125 18.859375 -3.570312 18.421875 -2.875 C 17.992188 -2.175781 17.367188 -1.5625 16.546875 -1.03125 C 15.734375 -0.5 14.726562 -0.0820312 13.53125 0.21875 C 12.332031 0.53125 10.925781 0.6875 9.3125 0.6875 C 8.300781 0.6875 7.316406 0.625 6.359375 0.5 C 5.398438 0.375 4.515625 0.222656 3.703125 0.046875 C 2.890625 -0.128906 2.179688 -0.300781 1.578125 -0.46875 C 0.984375 -0.644531 0.535156 -0.785156 0.234375 -0.890625 C 0.128906 -0.921875 0.0507812 -0.957031 0 -1 C -0.0625 -1.039062 -0.09375 -1.113281 -0.09375 -1.21875 C -0.09375 -1.269531 -0.0859375 -1.328125 -0.078125 -1.390625 C -0.0664062 -1.460938 -0.046875 -1.546875 -0.015625 -1.640625 L 0.21875 -2.71875 C 0.238281 -2.820312 0.28125 -2.90625 0.34375 -2.96875 C 0.414062 -3.039062 0.535156 -3.078125 0.703125 -3.078125 C 1.128906 -3.078125 1.554688 -3.097656 1.984375 -3.140625 C 2.421875 -3.179688 2.820312 -3.300781 3.1875 -3.5 C 3.5625 -3.695312 3.890625 -3.992188 4.171875 -4.390625 C 4.453125 -4.796875 4.644531 -5.363281 4.75 -6.09375 L 6.109375 -15.453125 C 6.253906 -16.441406 6.617188 -17.265625 7.203125 -17.921875 C 7.785156 -18.585938 8.503906 -19.117188 9.359375 -19.515625 C 10.222656 -19.910156 11.195312 -20.1875 12.28125 -20.34375 C 13.375 -20.507812 14.5 -20.59375 15.65625 -20.59375 Z M 15.65625 -20.59375 "/></g></g></g><g fill="#2a388f" fill-opacity="0.502"><g transform="translate(63.744234, 93.142371)"><g><path d="M 16.984375 -8.09375 L 16.984375 -2.71875 C 16.984375 -2.25 16.945312 -1.84375 16.875 -1.5 C 16.8125 -1.15625 16.675781 -0.875 16.46875 -0.65625 C 16.257812 -0.4375 15.960938 -0.269531 15.578125 -0.15625 C 15.203125 -0.0507812 14.695312 0 14.0625 0 L 5.625 0 C 5 0 4.488281 -0.0546875 4.09375 -0.171875 C 3.707031 -0.285156 3.40625 -0.453125 3.1875 -0.671875 C 2.96875 -0.898438 2.816406 -1.179688 2.734375 -1.515625 C 2.660156 -1.847656 2.625 -2.242188 2.625 -2.703125 L 2.625 -8.09375 L 1.015625 -8.09375 C 0.742188 -8.09375 0.609375 -8.234375 0.609375 -8.515625 L 0.609375 -10.078125 C 0.609375 -10.347656 0.742188 -10.484375 1.015625 -10.484375 L 2.625 -10.484375 L 2.625 -22.234375 C 2.625 -23.628906 2.769531 -24.84375 3.0625 -25.875 C 3.351562 -26.914062 3.75 -27.804688 4.25 -28.546875 C 4.75 -29.296875 5.332031 -29.910156 6 -30.390625 C 6.675781 -30.867188 7.40625 -31.25 8.1875 -31.53125 C 8.96875 -31.8125 9.773438 -32.003906 10.609375 -32.109375 C 11.441406 -32.210938 12.273438 -32.265625 13.109375 -32.265625 C 13.816406 -32.265625 14.5625 -32.21875 15.34375 -32.125 C 16.132812 -32.03125 16.894531 -31.910156 17.625 -31.765625 C 18.363281 -31.617188 19.050781 -31.441406 19.6875 -31.234375 C 20.320312 -31.035156 20.859375 -30.832031 21.296875 -30.625 C 21.398438 -30.570312 21.507812 -30.492188 21.625 -30.390625 C 21.738281 -30.285156 21.796875 -30.109375 21.796875 -29.859375 L 21.796875 -28.484375 C 21.796875 -28.316406 21.765625 -28.21875 21.703125 -28.1875 C 21.640625 -28.15625 21.582031 -28.140625 21.53125 -28.140625 C 21.363281 -28.140625 21.179688 -28.175781 20.984375 -28.25 C 20.785156 -28.332031 20.492188 -28.375 20.109375 -28.375 C 19.679688 -28.375 19.273438 -28.285156 18.890625 -28.109375 C 18.503906 -27.929688 18.171875 -27.625 17.890625 -27.1875 C 17.609375 -26.75 17.382812 -26.148438 17.21875 -25.390625 C 17.0625 -24.640625 16.984375 -23.695312 16.984375 -22.5625 L 16.984375 -10.484375 L 20.859375 -10.484375 C 21.140625 -10.484375 21.28125 -10.347656 21.28125 -10.078125 L 21.28125 -8.515625 C 21.28125 -8.234375 21.140625 -8.09375 20.859375 -8.09375 Z M 16.984375 -8.09375 "/></g></g></g><g fill="#2a388f" fill-opacity="0.502"><g transform="translate(85.539762, 93.142371)"><g><path d="M 1.796875 -29.15625 C 1.796875 -29.59375 1.832031 -29.984375 1.90625 -30.328125 C 1.976562 -30.671875 2.125 -30.953125 2.34375 -31.171875 C 2.570312 -31.390625 2.878906 -31.554688 3.265625 -31.671875 C 3.648438 -31.796875 4.15625 -31.859375 4.78125 -31.859375 L 13.296875 -31.859375 C 13.898438 -31.859375 14.378906 -31.800781 14.734375 -31.6875 C 15.097656 -31.582031 15.382812 -31.414062 15.59375 -31.1875 C 15.800781 -30.96875 15.941406 -30.691406 16.015625 -30.359375 C 16.085938 -30.023438 16.125 -29.628906 16.125 -29.171875 L 16.125 -2.671875 C 16.125 -2.222656 16.082031 -1.832031 16 -1.5 C 15.925781 -1.175781 15.785156 -0.898438 15.578125 -0.671875 C 15.367188 -0.441406 15.078125 -0.269531 14.703125 -0.15625 C 14.335938 -0.0507812 13.859375 0 13.265625 0 L 4.78125 0 C 4.15625 0 3.648438 -0.0546875 3.265625 -0.171875 C 2.878906 -0.285156 2.570312 -0.453125 2.34375 -0.671875 C 2.125 -0.898438 1.976562 -1.179688 1.90625 -1.515625 C 1.832031 -1.847656 1.796875 -2.242188 1.796875 -2.703125 Z M 1.796875 -29.15625 "/></g></g></g><g fill="#2a388f" fill-opacity="0.502"><g transform="translate(103.446705, 93.142371)"><g><path d="M 9.921875 0 C 9.222656 0 8.519531 -0.0390625 7.8125 -0.125 C 7.101562 -0.21875 6.425781 -0.363281 5.78125 -0.5625 C 5.144531 -0.769531 4.546875 -1.035156 3.984375 -1.359375 C 3.429688 -1.679688 2.945312 -2.082031 2.53125 -2.5625 C 2.125 -3.039062 1.800781 -3.601562 1.5625 -4.25 C 1.332031 -4.90625 1.21875 -5.65625 1.21875 -6.5 C 1.21875 -7.625 1.429688 -8.585938 1.859375 -9.390625 C 2.296875 -10.191406 2.875 -10.859375 3.59375 -11.390625 C 4.3125 -11.921875 5.132812 -12.328125 6.0625 -12.609375 C 7 -12.898438 7.96875 -13.085938 8.96875 -13.171875 L 8.96875 -14.5 C 8.96875 -15.007812 8.898438 -15.410156 8.765625 -15.703125 C 8.640625 -16.003906 8.472656 -16.226562 8.265625 -16.375 C 8.066406 -16.53125 7.847656 -16.628906 7.609375 -16.671875 C 7.367188 -16.722656 7.140625 -16.75 6.921875 -16.75 C 6.660156 -16.75 6.382812 -16.707031 6.09375 -16.625 C 5.800781 -16.550781 5.519531 -16.457031 5.25 -16.34375 C 4.976562 -16.238281 4.71875 -16.117188 4.46875 -15.984375 C 4.226562 -15.859375 4.019531 -15.742188 3.84375 -15.640625 C 3.769531 -15.585938 3.703125 -15.539062 3.640625 -15.5 C 3.578125 -15.457031 3.507812 -15.4375 3.4375 -15.4375 C 3.320312 -15.4375 3.210938 -15.519531 3.109375 -15.6875 L 2.453125 -16.75 C 2.390625 -16.832031 2.359375 -16.925781 2.359375 -17.03125 C 2.359375 -17.132812 2.398438 -17.222656 2.484375 -17.296875 C 2.566406 -17.378906 2.644531 -17.445312 2.71875 -17.5 C 3.144531 -17.800781 3.6875 -18.109375 4.34375 -18.421875 C 5.007812 -18.734375 5.753906 -19.007812 6.578125 -19.25 C 7.398438 -19.5 8.289062 -19.703125 9.25 -19.859375 C 10.21875 -20.015625 11.210938 -20.09375 12.234375 -20.09375 C 13.203125 -20.09375 14.148438 -20.054688 15.078125 -19.984375 C 16.003906 -19.921875 16.878906 -19.78125 17.703125 -19.5625 C 18.523438 -19.351562 19.273438 -19.050781 19.953125 -18.65625 C 20.640625 -18.257812 21.234375 -17.738281 21.734375 -17.09375 C 22.234375 -16.445312 22.617188 -15.648438 22.890625 -14.703125 C 23.160156 -13.753906 23.296875 -12.617188 23.296875 -11.296875 L 23.296875 -2.625 C 23.296875 -2.195312 23.253906 -1.816406 23.171875 -1.484375 C 23.097656 -1.148438 22.953125 -0.875 22.734375 -0.65625 C 22.515625 -0.4375 22.207031 -0.269531 21.8125 -0.15625 C 21.425781 -0.0507812 20.921875 0 20.296875 0 Z M 8.96875 -10.703125 C 8.03125 -10.703125 7.242188 -10.582031 6.609375 -10.34375 C 5.972656 -10.113281 5.460938 -9.800781 5.078125 -9.40625 C 4.691406 -9.019531 4.410156 -8.570312 4.234375 -8.0625 C 4.066406 -7.550781 3.984375 -7.019531 3.984375 -6.46875 C 3.984375 -5.925781 4.066406 -5.410156 4.234375 -4.921875 C 4.410156 -4.441406 4.691406 -4.019531 5.078125 -3.65625 C 5.460938 -3.289062 5.972656 -3.003906 6.609375 -2.796875 C 7.242188 -2.585938 8.03125 -2.484375 8.96875 -2.484375 Z M 8.96875 -10.703125 "/></g></g></g><g fill="#2a388f" fill-opacity="0.502"><g transform="translate(128.528082, 93.142371)"><g><path d="M 15.65625 -20.59375 C 16.488281 -20.59375 17.316406 -20.539062 18.140625 -20.4375 C 18.972656 -20.34375 19.757812 -20.21875 20.5 -20.0625 C 21.25 -19.914062 21.929688 -19.742188 22.546875 -19.546875 C 23.160156 -19.359375 23.664062 -19.175781 24.0625 -19 C 24.125 -18.976562 24.191406 -18.941406 24.265625 -18.890625 C 24.335938 -18.835938 24.375 -18.738281 24.375 -18.59375 C 24.375 -18.550781 24.363281 -18.5 24.34375 -18.4375 C 24.332031 -18.375 24.320312 -18.304688 24.3125 -18.234375 L 24.078125 -17.09375 C 24.046875 -16.9375 24.007812 -16.84375 23.96875 -16.8125 C 23.925781 -16.78125 23.882812 -16.765625 23.84375 -16.765625 C 23.78125 -16.765625 23.65625 -16.78125 23.46875 -16.8125 C 23.289062 -16.851562 23.097656 -16.875 22.890625 -16.875 C 22.148438 -16.875 21.566406 -16.675781 21.140625 -16.28125 C 20.710938 -15.882812 20.441406 -15.195312 20.328125 -14.21875 L 19.234375 -5.140625 C 19.128906 -4.328125 18.859375 -3.570312 18.421875 -2.875 C 17.992188 -2.175781 17.367188 -1.5625 16.546875 -1.03125 C 15.734375 -0.5 14.726562 -0.0820312 13.53125 0.21875 C 12.332031 0.53125 10.925781 0.6875 9.3125 0.6875 C 8.300781 0.6875 7.316406 0.625 6.359375 0.5 C 5.398438 0.375 4.515625 0.222656 3.703125 0.046875 C 2.890625 -0.128906 2.179688 -0.300781 1.578125 -0.46875 C 0.984375 -0.644531 0.535156 -0.785156 0.234375 -0.890625 C 0.128906 -0.921875 0.0507812 -0.957031 0 -1 C -0.0625 -1.039062 -0.09375 -1.113281 -0.09375 -1.21875 C -0.09375 -1.269531 -0.0859375 -1.328125 -0.078125 -1.390625 C -0.0664062 -1.460938 -0.046875 -1.546875 -0.015625 -1.640625 L 0.21875 -2.71875 C 0.238281 -2.820312 0.28125 -2.90625 0.34375 -2.96875 C 0.414062 -3.039062 0.535156 -3.078125 0.703125 -3.078125 C 1.128906 -3.078125 1.554688 -3.097656 1.984375 -3.140625 C 2.421875 -3.179688 2.820312 -3.300781 3.1875 -3.5 C 3.5625 -3.695312 3.890625 -3.992188 4.171875 -4.390625 C 4.453125 -4.796875 4.644531 -5.363281 4.75 -6.09375 L 6.109375 -15.453125 C 6.253906 -16.441406 6.617188 -17.265625 7.203125 -17.921875 C 7.785156 -18.585938 8.503906 -19.117188 9.359375 -19.515625 C 10.222656 -19.910156 11.195312 -20.1875 12.28125 -20.34375 C 13.375 -20.507812 14.5 -20.59375 15.65625 -20.59375 Z M 15.65625 -20.59375 "/></g></g></g><g fill="#2a388f" fill-opacity="0.502"><g transform="translate(152.792856, 93.142371)"><g><path d="M 16.125 -19.546875 C 16.40625 -19.765625 16.742188 -19.941406 17.140625 -20.078125 C 17.546875 -20.222656 17.988281 -20.296875 18.46875 -20.296875 C 19.71875 -20.296875 20.6875 -19.867188 21.375 -19.015625 C 22.070312 -18.160156 22.421875 -16.90625 22.421875 -15.25 L 22.421875 -0.90625 C 22.421875 -0.6875 22.390625 -0.515625 22.328125 -0.390625 C 22.273438 -0.273438 22.207031 -0.1875 22.125 -0.125 C 22.039062 -0.0625 21.9375 -0.0234375 21.8125 -0.015625 C 21.695312 -0.00390625 21.582031 0 21.46875 0 L 20.21875 0 C 19.882812 0 19.664062 -0.09375 19.5625 -0.28125 C 19.46875 -0.476562 19.421875 -0.6875 19.421875 -0.90625 L 19.421875 -15.4375 C 19.421875 -16.175781 19.285156 -16.738281 19.015625 -17.125 C 18.753906 -17.519531 18.332031 -17.71875 17.75 -17.71875 C 17.457031 -17.71875 17.15625 -17.632812 16.84375 -17.46875 C 16.539062 -17.3125 16.300781 -17.140625 16.125 -16.953125 L 16.125 -2.71875 C 16.125 -2.269531 16.097656 -1.875 16.046875 -1.53125 C 15.992188 -1.195312 15.867188 -0.914062 15.671875 -0.6875 C 15.484375 -0.457031 15.207031 -0.285156 14.84375 -0.171875 C 14.476562 -0.0546875 13.984375 0 13.359375 0 L 4.359375 0 C 3.847656 0 3.425781 -0.0546875 3.09375 -0.171875 C 2.769531 -0.285156 2.507812 -0.453125 2.3125 -0.671875 C 2.113281 -0.898438 1.976562 -1.179688 1.90625 -1.515625 C 1.832031 -1.847656 1.796875 -2.242188 1.796875 -2.703125 L 1.796875 -29.15625 C 1.796875 -29.59375 1.832031 -29.984375 1.90625 -30.328125 C 1.976562 -30.671875 2.125 -30.953125 2.34375 -31.171875 C 2.570312 -31.390625 2.878906 -31.554688 3.265625 -31.671875 C 3.648438 -31.796875 4.15625 -31.859375 4.78125 -31.859375 L 13.296875 -31.859375 C 13.878906 -31.859375 14.351562 -31.804688 14.71875 -31.703125 C 15.09375 -31.597656 15.382812 -31.429688 15.59375 -31.203125 C 15.800781 -30.972656 15.941406 -30.691406 16.015625 -30.359375 C 16.085938 -30.023438 16.125 -29.625 16.125 -29.15625 Z M 16.125 -19.546875 "/></g></g></g><g fill="#2a388f" fill-opacity="0.502"><g transform="translate(176.999307, 93.142371)"><g><path d="M 15.171875 -9.84375 C 15.171875 -8.53125 15.304688 -7.4375 15.578125 -6.5625 C 15.859375 -5.695312 16.210938 -5.007812 16.640625 -4.5 C 17.066406 -3.988281 17.523438 -3.628906 18.015625 -3.421875 C 18.515625 -3.210938 18.976562 -3.109375 19.40625 -3.109375 C 19.726562 -3.109375 20.023438 -3.148438 20.296875 -3.234375 C 20.578125 -3.316406 20.816406 -3.410156 21.015625 -3.515625 C 21.222656 -3.628906 21.398438 -3.726562 21.546875 -3.8125 C 21.691406 -3.90625 21.800781 -3.953125 21.875 -3.953125 C 21.988281 -3.953125 22.066406 -3.929688 22.109375 -3.890625 C 22.160156 -3.847656 22.21875 -3.773438 22.28125 -3.671875 L 22.96875 -2.625 C 23.03125 -2.519531 23.0625 -2.429688 23.0625 -2.359375 C 23.0625 -2.265625 23.035156 -2.191406 22.984375 -2.140625 C 22.929688 -2.085938 22.878906 -2.039062 22.828125 -2 C 22.398438 -1.707031 21.875 -1.394531 21.25 -1.0625 C 20.632812 -0.726562 19.914062 -0.425781 19.09375 -0.15625 C 18.269531 0.113281 17.347656 0.335938 16.328125 0.515625 C 15.316406 0.703125 14.21875 0.796875 13.03125 0.796875 C 12.0625 0.796875 11.085938 0.71875 10.109375 0.5625 C 9.140625 0.40625 8.207031 0.15625 7.3125 -0.1875 C 6.425781 -0.539062 5.597656 -0.992188 4.828125 -1.546875 C 4.066406 -2.097656 3.40625 -2.765625 2.84375 -3.546875 C 2.28125 -4.328125 1.835938 -5.238281 1.515625 -6.28125 C 1.191406 -7.332031 1.03125 -8.519531 1.03125 -9.84375 C 1.03125 -11.164062 1.191406 -12.347656 1.515625 -13.390625 C 1.835938 -14.429688 2.28125 -15.34375 2.84375 -16.125 C 3.40625 -16.914062 4.066406 -17.585938 4.828125 -18.140625 C 5.597656 -18.691406 6.425781 -19.140625 7.3125 -19.484375 C 8.207031 -19.835938 9.140625 -20.09375 10.109375 -20.25 C 11.085938 -20.40625 12.0625 -20.484375 13.03125 -20.484375 C 14.09375 -20.484375 15.113281 -20.398438 16.09375 -20.234375 C 17.082031 -20.066406 17.992188 -19.847656 18.828125 -19.578125 C 19.671875 -19.316406 20.425781 -19.023438 21.09375 -18.703125 C 21.757812 -18.390625 22.300781 -18.082031 22.71875 -17.78125 C 22.769531 -17.738281 22.820312 -17.691406 22.875 -17.640625 C 22.925781 -17.585938 22.953125 -17.515625 22.953125 -17.421875 C 22.953125 -17.328125 22.914062 -17.238281 22.84375 -17.15625 L 22.171875 -16.109375 C 22.109375 -16.003906 22.050781 -15.929688 22 -15.890625 C 21.957031 -15.847656 21.878906 -15.828125 21.765625 -15.828125 C 21.679688 -15.828125 21.570312 -15.863281 21.4375 -15.9375 C 21.3125 -16.019531 21.148438 -16.109375 20.953125 -16.203125 C 20.765625 -16.304688 20.539062 -16.398438 20.28125 -16.484375 C 20.019531 -16.566406 19.726562 -16.609375 19.40625 -16.609375 C 18.976562 -16.609375 18.515625 -16.5 18.015625 -16.28125 C 17.523438 -16.070312 17.066406 -15.707031 16.640625 -15.1875 C 16.210938 -14.664062 15.859375 -13.96875 15.578125 -13.09375 C 15.304688 -12.226562 15.171875 -11.144531 15.171875 -9.84375 Z M 15.171875 -9.84375 "/></g></g></g><g fill="#2a388f" fill-opacity="0.502"><g transform="translate(200.447479, 93.142371)"><g><path d="M 9.921875 0 C 9.222656 0 8.519531 -0.0390625 7.8125 -0.125 C 7.101562 -0.21875 6.425781 -0.363281 5.78125 -0.5625 C 5.144531 -0.769531 4.546875 -1.035156 3.984375 -1.359375 C 3.429688 -1.679688 2.945312 -2.082031 2.53125 -2.5625 C 2.125 -3.039062 1.800781 -3.601562 1.5625 -4.25 C 1.332031 -4.90625 1.21875 -5.65625 1.21875 -6.5 C 1.21875 -7.625 1.429688 -8.585938 1.859375 -9.390625 C 2.296875 -10.191406 2.875 -10.859375 3.59375 -11.390625 C 4.3125 -11.921875 5.132812 -12.328125 6.0625 -12.609375 C 7 -12.898438 7.96875 -13.085938 8.96875 -13.171875 L 8.96875 -14.5 C 8.96875 -15.007812 8.898438 -15.410156 8.765625 -15.703125 C 8.640625 -16.003906 8.472656 -16.226562 8.265625 -16.375 C 8.066406 -16.53125 7.847656 -16.628906 7.609375 -16.671875 C 7.367188 -16.722656 7.140625 -16.75 6.921875 -16.75 C 6.660156 -16.75 6.382812 -16.707031 6.09375 -16.625 C 5.800781 -16.550781 5.519531 -16.457031 5.25 -16.34375 C 4.976562 -16.238281 4.71875 -16.117188 4.46875 -15.984375 C 4.226562 -15.859375 4.019531 -15.742188 3.84375 -15.640625 C 3.769531 -15.585938 3.703125 -15.539062 3.640625 -15.5 C 3.578125 -15.457031 3.507812 -15.4375 3.4375 -15.4375 C 3.320312 -15.4375 3.210938 -15.519531 3.109375 -15.6875 L 2.453125 -16.75 C 2.390625 -16.832031 2.359375 -16.925781 2.359375 -17.03125 C 2.359375 -17.132812 2.398438 -17.222656 2.484375 -17.296875 C 2.566406 -17.378906 2.644531 -17.445312 2.71875 -17.5 C 3.144531 -17.800781 3.6875 -18.109375 4.34375 -18.421875 C 5.007812 -18.734375 5.753906 -19.007812 6.578125 -19.25 C 7.398438 -19.5 8.289062 -19.703125 9.25 -19.859375 C 10.21875 -20.015625 11.210938 -20.09375 12.234375 -20.09375 C 13.203125 -20.09375 14.148438 -20.054688 15.078125 -19.984375 C 16.003906 -19.921875 16.878906 -19.78125 17.703125 -19.5625 C 18.523438 -19.351562 19.273438 -19.050781 19.953125 -18.65625 C 20.640625 -18.257812 21.234375 -17.738281 21.734375 -17.09375 C 22.234375 -16.445312 22.617188 -15.648438 22.890625 -14.703125 C 23.160156 -13.753906 23.296875 -12.617188 23.296875 -11.296875 L 23.296875 -2.625 C 23.296875 -2.195312 23.253906 -1.816406 23.171875 -1.484375 C 23.097656 -1.148438 22.953125 -0.875 22.734375 -0.65625 C 22.515625 -0.4375 22.207031 -0.269531 21.8125 -0.15625 C 21.425781 -0.0507812 20.921875 0 20.296875 0 Z M 8.96875 -10.703125 C 8.03125 -10.703125 7.242188 -10.582031 6.609375 -10.34375 C 5.972656 -10.113281 5.460938 -9.800781 5.078125 -9.40625 C 4.691406 -9.019531 4.410156 -8.570312 4.234375 -8.0625 C 4.066406 -7.550781 3.984375 -7.019531 3.984375 -6.46875 C 3.984375 -5.925781 4.066406 -5.410156 4.234375 -4.921875 C 4.410156 -4.441406 4.691406 -4.019531 5.078125 -3.65625 C 5.460938 -3.289062 5.972656 -3.003906 6.609375 -2.796875 C 7.242188 -2.585938 8.03125 -2.484375 8.96875 -2.484375 Z M 8.96875 -10.703125 "/></g></g></g><g fill="#2a388f" fill-opacity="0.502"><g transform="translate(225.528856, 93.142371)"><g><path d="M 1.796875 -17.203125 C 1.796875 -17.648438 1.832031 -18.046875 1.90625 -18.390625 C 1.976562 -18.734375 2.125 -19.015625 2.34375 -19.234375 C 2.570312 -19.453125 2.878906 -19.617188 3.265625 -19.734375 C 3.648438 -19.859375 4.15625 -19.921875 4.78125 -19.921875 L 13.296875 -19.921875 C 13.898438 -19.921875 14.378906 -19.859375 14.734375 -19.734375 C 15.097656 -19.617188 15.382812 -19.441406 15.59375 -19.203125 C 15.800781 -18.972656 15.941406 -18.679688 16.015625 -18.328125 C 16.085938 -17.984375 16.125 -17.578125 16.125 -17.109375 L 16.125 -15.671875 L 20.4375 -19.875 C 20.71875 -20.144531 20.984375 -20.28125 21.234375 -20.28125 C 21.378906 -20.28125 21.503906 -20.25 21.609375 -20.1875 C 21.722656 -20.132812 21.816406 -20.066406 21.890625 -19.984375 L 22.765625 -19.078125 C 22.960938 -18.878906 23.0625 -18.664062 23.0625 -18.4375 C 23.0625 -18.289062 23.019531 -18.144531 22.9375 -18 C 22.851562 -17.851562 22.722656 -17.707031 22.546875 -17.5625 L 16.125 -12.578125 L 16.125 -2.734375 C 16.125 -2.285156 16.085938 -1.890625 16.015625 -1.546875 C 15.953125 -1.203125 15.8125 -0.914062 15.59375 -0.6875 C 15.375 -0.457031 15.054688 -0.285156 14.640625 -0.171875 C 14.222656 -0.0546875 13.660156 0 12.953125 0 L 4.78125 0 C 4.15625 0 3.648438 -0.0546875 3.265625 -0.171875 C 2.878906 -0.285156 2.570312 -0.453125 2.34375 -0.671875 C 2.125 -0.898438 1.976562 -1.179688 1.90625 -1.515625 C 1.832031 -1.847656 1.796875 -2.242188 1.796875 -2.703125 Z M 1.796875 -17.203125 "/></g></g></g><g fill="#2a388f" fill-opacity="0.502"><g transform="translate(247.129955, 93.142371)"><g><path d="M 23.859375 -2.703125 C 23.859375 -2.242188 23.816406 -1.847656 23.734375 -1.515625 C 23.660156 -1.179688 23.515625 -0.898438 23.296875 -0.671875 C 23.078125 -0.453125 22.769531 -0.285156 22.375 -0.171875 C 21.988281 -0.0546875 21.484375 0 20.859375 0 L 12.375 0 C 11.425781 -0.0195312 10.488281 -0.101562 9.5625 -0.25 C 8.632812 -0.40625 7.75 -0.640625 6.90625 -0.953125 C 6.070312 -1.273438 5.296875 -1.691406 4.578125 -2.203125 C 3.859375 -2.710938 3.234375 -3.332031 2.703125 -4.0625 C 2.179688 -4.800781 1.769531 -5.664062 1.46875 -6.65625 C 1.175781 -7.644531 1.03125 -8.785156 1.03125 -10.078125 C 1.03125 -11.671875 1.253906 -13.039062 1.703125 -14.1875 C 2.160156 -15.332031 2.773438 -16.289062 3.546875 -17.0625 C 4.328125 -17.84375 5.234375 -18.460938 6.265625 -18.921875 C 7.296875 -19.378906 8.382812 -19.710938 9.53125 -19.921875 L 9.53125 -29.125 C 9.53125 -29.582031 9.5625 -29.984375 9.625 -30.328125 C 9.6875 -30.671875 9.820312 -30.957031 10.03125 -31.1875 C 10.238281 -31.414062 10.523438 -31.582031 10.890625 -31.6875 C 11.253906 -31.800781 11.738281 -31.859375 12.34375 -31.859375 L 20.859375 -31.859375 C 21.484375 -31.859375 21.988281 -31.796875 22.375 -31.671875 C 22.769531 -31.554688 23.078125 -31.390625 23.296875 -31.171875 C 23.515625 -30.953125 23.660156 -30.671875 23.734375 -30.328125 C 23.816406 -29.984375 23.859375 -29.59375 23.859375 -29.15625 Z M 3.796875 -10.046875 C 3.796875 -9.085938 3.90625 -8.191406 4.125 -7.359375 C 4.34375 -6.523438 4.679688 -5.785156 5.140625 -5.140625 C 5.597656 -4.503906 6.191406 -3.976562 6.921875 -3.5625 C 7.648438 -3.144531 8.519531 -2.878906 9.53125 -2.765625 L 9.53125 -17.421875 C 8.519531 -17.304688 7.648438 -17.035156 6.921875 -16.609375 C 6.191406 -16.191406 5.597656 -15.660156 5.140625 -15.015625 C 4.679688 -14.367188 4.34375 -13.625 4.125 -12.78125 C 3.90625 -11.9375 3.796875 -11.023438 3.796875 -10.046875 Z M 3.796875 -10.046875 "/></g></g></g><g fill="#2a388f" fill-opacity="0.502"><g transform="translate(272.775183, 93.142371)"><g><path d="M 15.65625 -20.59375 C 16.488281 -20.59375 17.316406 -20.539062 18.140625 -20.4375 C 18.972656 -20.34375 19.757812 -20.21875 20.5 -20.0625 C 21.25 -19.914062 21.929688 -19.742188 22.546875 -19.546875 C 23.160156 -19.359375 23.664062 -19.175781 24.0625 -19 C 24.125 -18.976562 24.191406 -18.941406 24.265625 -18.890625 C 24.335938 -18.835938 24.375 -18.738281 24.375 -18.59375 C 24.375 -18.550781 24.363281 -18.5 24.34375 -18.4375 C 24.332031 -18.375 24.320312 -18.304688 24.3125 -18.234375 L 24.078125 -17.09375 C 24.046875 -16.9375 24.007812 -16.84375 23.96875 -16.8125 C 23.925781 -16.78125 23.882812 -16.765625 23.84375 -16.765625 C 23.78125 -16.765625 23.65625 -16.78125 23.46875 -16.8125 C 23.289062 -16.851562 23.097656 -16.875 22.890625 -16.875 C 22.148438 -16.875 21.566406 -16.675781 21.140625 -16.28125 C 20.710938 -15.882812 20.441406 -15.195312 20.328125 -14.21875 L 19.234375 -5.140625 C 19.128906 -4.328125 18.859375 -3.570312 18.421875 -2.875 C 17.992188 -2.175781 17.367188 -1.5625 16.546875 -1.03125 C 15.734375 -0.5 14.726562 -0.0820312 13.53125 0.21875 C 12.332031 0.53125 10.925781 0.6875 9.3125 0.6875 C 8.300781 0.6875 7.316406 0.625 6.359375 0.5 C 5.398438 0.375 4.515625 0.222656 3.703125 0.046875 C 2.890625 -0.128906 2.179688 -0.300781 1.578125 -0.46875 C 0.984375 -0.644531 0.535156 -0.785156 0.234375 -0.890625 C 0.128906 -0.921875 0.0507812 -0.957031 0 -1 C -0.0625 -1.039062 -0.09375 -1.113281 -0.09375 -1.21875 C -0.09375 -1.269531 -0.0859375 -1.328125 -0.078125 -1.390625 C -0.0664062 -1.460938 -0.046875 -1.546875 -0.015625 -1.640625 L 0.21875 -2.71875 C 0.238281 -2.820312 0.28125 -2.90625 0.34375 -2.96875 C 0.414062 -3.039062 0.535156 -3.078125 0.703125 -3.078125 C 1.128906 -3.078125 1.554688 -3.097656 1.984375 -3.140625 C 2.421875 -3.179688 2.820312 -3.300781 3.1875 -3.5 C 3.5625 -3.695312 3.890625 -3.992188 4.171875 -4.390625 C 4.453125 -4.796875 4.644531 -5.363281 4.75 -6.09375 L 6.109375 -15.453125 C 6.253906 -16.441406 6.617188 -17.265625 7.203125 -17.921875 C 7.785156 -18.585938 8.503906 -19.117188 9.359375 -19.515625 C 10.222656 -19.910156 11.195312 -20.1875 12.28125 -20.34375 C 13.375 -20.507812 14.5 -20.59375 15.65625 -20.59375 Z M 15.65625 -20.59375 "/></g></g></g><g fill="#f7961b" fill-opacity="1"><g transform="translate(65.235363, 90.846234)"><g><path d="M 16.984375 -8.09375 L 16.984375 -2.71875 C 16.984375 -2.25 16.945312 -1.84375 16.875 -1.5 C 16.8125 -1.15625 16.675781 -0.875 16.46875 -0.65625 C 16.257812 -0.4375 15.960938 -0.269531 15.578125 -0.15625 C 15.203125 -0.0507812 14.695312 0 14.0625 0 L 5.625 0 C 5 0 4.488281 -0.0546875 4.09375 -0.171875 C 3.707031 -0.285156 3.40625 -0.453125 3.1875 -0.671875 C 2.96875 -0.898438 2.816406 -1.179688 2.734375 -1.515625 C 2.660156 -1.847656 2.625 -2.242188 2.625 -2.703125 L 2.625 -8.09375 L 1.015625 -8.09375 C 0.742188 -8.09375 0.609375 -8.234375 0.609375 -8.515625 L 0.609375 -10.078125 C 0.609375 -10.347656 0.742188 -10.484375 1.015625 -10.484375 L 2.625 -10.484375 L 2.625 -22.234375 C 2.625 -23.628906 2.769531 -24.84375 3.0625 -25.875 C 3.351562 -26.914062 3.75 -27.804688 4.25 -28.546875 C 4.75 -29.296875 5.332031 -29.910156 6 -30.390625 C 6.675781 -30.867188 7.40625 -31.25 8.1875 -31.53125 C 8.96875 -31.8125 9.773438 -32.003906 10.609375 -32.109375 C 11.441406 -32.210938 12.273438 -32.265625 13.109375 -32.265625 C 13.816406 -32.265625 14.5625 -32.21875 15.34375 -32.125 C 16.132812 -32.03125 16.894531 -31.910156 17.625 -31.765625 C 18.363281 -31.617188 19.050781 -31.441406 19.6875 -31.234375 C 20.320312 -31.035156 20.859375 -30.832031 21.296875 -30.625 C 21.398438 -30.570312 21.507812 -30.492188 21.625 -30.390625 C 21.738281 -30.285156 21.796875 -30.109375 21.796875 -29.859375 L 21.796875 -28.484375 C 21.796875 -28.316406 21.765625 -28.21875 21.703125 -28.1875 C 21.640625 -28.15625 21.582031 -28.140625 21.53125 -28.140625 C 21.363281 -28.140625 21.179688 -28.175781 20.984375 -28.25 C 20.785156 -28.332031 20.492188 -28.375 20.109375 -28.375 C 19.679688 -28.375 19.273438 -28.285156 18.890625 -28.109375 C 18.503906 -27.929688 18.171875 -27.625 17.890625 -27.1875 C 17.609375 -26.75 17.382812 -26.148438 17.21875 -25.390625 C 17.0625 -24.640625 16.984375 -23.695312 16.984375 -22.5625 L 16.984375 -10.484375 L 20.859375 -10.484375 C 21.140625 -10.484375 21.28125 -10.347656 21.28125 -10.078125 L 21.28125 -8.515625 C 21.28125 -8.234375 21.140625 -8.09375 20.859375 -8.09375 Z M 16.984375 -8.09375 "/></g></g></g><g fill="#f7961b" fill-opacity="1"><g transform="translate(87.030891, 90.846234)"><g><path d="M 1.796875 -29.15625 C 1.796875 -29.59375 1.832031 -29.984375 1.90625 -30.328125 C 1.976562 -30.671875 2.125 -30.953125 2.34375 -31.171875 C 2.570312 -31.390625 2.878906 -31.554688 3.265625 -31.671875 C 3.648438 -31.796875 4.15625 -31.859375 4.78125 -31.859375 L 13.296875 -31.859375 C 13.898438 -31.859375 14.378906 -31.800781 14.734375 -31.6875 C 15.097656 -31.582031 15.382812 -31.414062 15.59375 -31.1875 C 15.800781 -30.96875 15.941406 -30.691406 16.015625 -30.359375 C 16.085938 -30.023438 16.125 -29.628906 16.125 -29.171875 L 16.125 -2.671875 C 16.125 -2.222656 16.082031 -1.832031 16 -1.5 C 15.925781 -1.175781 15.785156 -0.898438 15.578125 -0.671875 C 15.367188 -0.441406 15.078125 -0.269531 14.703125 -0.15625 C 14.335938 -0.0507812 13.859375 0 13.265625 0 L 4.78125 0 C 4.15625 0 3.648438 -0.0546875 3.265625 -0.171875 C 2.878906 -0.285156 2.570312 -0.453125 2.34375 -0.671875 C 2.125 -0.898438 1.976562 -1.179688 1.90625 -1.515625 C 1.832031 -1.847656 1.796875 -2.242188 1.796875 -2.703125 Z M 1.796875 -29.15625 "/></g></g></g><g fill="#f7961b" fill-opacity="1"><g transform="translate(104.937833, 90.846234)"><g><path d="M 9.921875 0 C 9.222656 0 8.519531 -0.0390625 7.8125 -0.125 C 7.101562 -0.21875 6.425781 -0.363281 5.78125 -0.5625 C 5.144531 -0.769531 4.546875 -1.035156 3.984375 -1.359375 C 3.429688 -1.679688 2.945312 -2.082031 2.53125 -2.5625 C 2.125 -3.039062 1.800781 -3.601562 1.5625 -4.25 C 1.332031 -4.90625 1.21875 -5.65625 1.21875 -6.5 C 1.21875 -7.625 1.429688 -8.585938 1.859375 -9.390625 C 2.296875 -10.191406 2.875 -10.859375 3.59375 -11.390625 C 4.3125 -11.921875 5.132812 -12.328125 6.0625 -12.609375 C 7 -12.898438 7.96875 -13.085938 8.96875 -13.171875 L 8.96875 -14.5 C 8.96875 -15.007812 8.898438 -15.410156 8.765625 -15.703125 C 8.640625 -16.003906 8.472656 -16.226562 8.265625 -16.375 C 8.066406 -16.53125 7.847656 -16.628906 7.609375 -16.671875 C 7.367188 -16.722656 7.140625 -16.75 6.921875 -16.75 C 6.660156 -16.75 6.382812 -16.707031 6.09375 -16.625 C 5.800781 -16.550781 5.519531 -16.457031 5.25 -16.34375 C 4.976562 -16.238281 4.71875 -16.117188 4.46875 -15.984375 C 4.226562 -15.859375 4.019531 -15.742188 3.84375 -15.640625 C 3.769531 -15.585938 3.703125 -15.539062 3.640625 -15.5 C 3.578125 -15.457031 3.507812 -15.4375 3.4375 -15.4375 C 3.320312 -15.4375 3.210938 -15.519531 3.109375 -15.6875 L 2.453125 -16.75 C 2.390625 -16.832031 2.359375 -16.925781 2.359375 -17.03125 C 2.359375 -17.132812 2.398438 -17.222656 2.484375 -17.296875 C 2.566406 -17.378906 2.644531 -17.445312 2.71875 -17.5 C 3.144531 -17.800781 3.6875 -18.109375 4.34375 -18.421875 C 5.007812 -18.734375 5.753906 -19.007812 6.578125 -19.25 C 7.398438 -19.5 8.289062 -19.703125 9.25 -19.859375 C 10.21875 -20.015625 11.210938 -20.09375 12.234375 -20.09375 C 13.203125 -20.09375 14.148438 -20.054688 15.078125 -19.984375 C 16.003906 -19.921875 16.878906 -19.78125 17.703125 -19.5625 C 18.523438 -19.351562 19.273438 -19.050781 19.953125 -18.65625 C 20.640625 -18.257812 21.234375 -17.738281 21.734375 -17.09375 C 22.234375 -16.445312 22.617188 -15.648438 22.890625 -14.703125 C 23.160156 -13.753906 23.296875 -12.617188 23.296875 -11.296875 L 23.296875 -2.625 C 23.296875 -2.195312 23.253906 -1.816406 23.171875 -1.484375 C 23.097656 -1.148438 22.953125 -0.875 22.734375 -0.65625 C 22.515625 -0.4375 22.207031 -0.269531 21.8125 -0.15625 C 21.425781 -0.0507812 20.921875 0 20.296875 0 Z M 8.96875 -10.703125 C 8.03125 -10.703125 7.242188 -10.582031 6.609375 -10.34375 C 5.972656 -10.113281 5.460938 -9.800781 5.078125 -9.40625 C 4.691406 -9.019531 4.410156 -8.570312 4.234375 -8.0625 C 4.066406 -7.550781 3.984375 -7.019531 3.984375 -6.46875 C 3.984375 -5.925781 4.066406 -5.410156 4.234375 -4.921875 C 4.410156 -4.441406 4.691406 -4.019531 5.078125 -3.65625 C 5.460938 -3.289062 5.972656 -3.003906 6.609375 -2.796875 C 7.242188 -2.585938 8.03125 -2.484375 8.96875 -2.484375 Z M 8.96875 -10.703125 "/></g></g></g><g fill="#f7961b" fill-opacity="1"><g transform="translate(130.01921, 90.846234)"><g><path d="M 15.65625 -20.59375 C 16.488281 -20.59375 17.316406 -20.539062 18.140625 -20.4375 C 18.972656 -20.34375 19.757812 -20.21875 20.5 -20.0625 C 21.25 -19.914062 21.929688 -19.742188 22.546875 -19.546875 C 23.160156 -19.359375 23.664062 -19.175781 24.0625 -19 C 24.125 -18.976562 24.191406 -18.941406 24.265625 -18.890625 C 24.335938 -18.835938 24.375 -18.738281 24.375 -18.59375 C 24.375 -18.550781 24.363281 -18.5 24.34375 -18.4375 C 24.332031 -18.375 24.320312 -18.304688 24.3125 -18.234375 L 24.078125 -17.09375 C 24.046875 -16.9375 24.007812 -16.84375 23.96875 -16.8125 C 23.925781 -16.78125 23.882812 -16.765625 23.84375 -16.765625 C 23.78125 -16.765625 23.65625 -16.78125 23.46875 -16.8125 C 23.289062 -16.851562 23.097656 -16.875 22.890625 -16.875 C 22.148438 -16.875 21.566406 -16.675781 21.140625 -16.28125 C 20.710938 -15.882812 20.441406 -15.195312 20.328125 -14.21875 L 19.234375 -5.140625 C 19.128906 -4.328125 18.859375 -3.570312 18.421875 -2.875 C 17.992188 -2.175781 17.367188 -1.5625 16.546875 -1.03125 C 15.734375 -0.5 14.726562 -0.0820312 13.53125 0.21875 C 12.332031 0.53125 10.925781 0.6875 9.3125 0.6875 C 8.300781 0.6875 7.316406 0.625 6.359375 0.5 C 5.398438 0.375 4.515625 0.222656 3.703125 0.046875 C 2.890625 -0.128906 2.179688 -0.300781 1.578125 -0.46875 C 0.984375 -0.644531 0.535156 -0.785156 0.234375 -0.890625 C 0.128906 -0.921875 0.0507812 -0.957031 0 -1 C -0.0625 -1.039062 -0.09375 -1.113281 -0.09375 -1.21875 C -0.09375 -1.269531 -0.0859375 -1.328125 -0.078125 -1.390625 C -0.0664062 -1.460938 -0.046875 -1.546875 -0.015625 -1.640625 L 0.21875 -2.71875 C 0.238281 -2.820312 0.28125 -2.90625 0.34375 -2.96875 C 0.414062 -3.039062 0.535156 -3.078125 0.703125 -3.078125 C 1.128906 -3.078125 1.554688 -3.097656 1.984375 -3.140625 C 2.421875 -3.179688 2.820312 -3.300781 3.1875 -3.5 C 3.5625 -3.695312 3.890625 -3.992188 4.171875 -4.390625 C 4.453125 -4.796875 4.644531 -5.363281 4.75 -6.09375 L 6.109375 -15.453125 C 6.253906 -16.441406 6.617188 -17.265625 7.203125 -17.921875 C 7.785156 -18.585938 8.503906 -19.117188 9.359375 -19.515625 C 10.222656 -19.910156 11.195312 -20.1875 12.28125 -20.34375 C 13.375 -20.507812 14.5 -20.59375 15.65625 -20.59375 Z M 15.65625 -20.59375 "/></g></g></g><g fill="#f7961b" fill-opacity="1"><g transform="translate(154.283985, 90.846234)"><g><path d="M 16.125 -19.546875 C 16.40625 -19.765625 16.742188 -19.941406 17.140625 -20.078125 C 17.546875 -20.222656 17.988281 -20.296875 18.46875 -20.296875 C 19.71875 -20.296875 20.6875 -19.867188 21.375 -19.015625 C 22.070312 -18.160156 22.421875 -16.90625 22.421875 -15.25 L 22.421875 -0.90625 C 22.421875 -0.6875 22.390625 -0.515625 22.328125 -0.390625 C 22.273438 -0.273438 22.207031 -0.1875 22.125 -0.125 C 22.039062 -0.0625 21.9375 -0.0234375 21.8125 -0.015625 C 21.695312 -0.00390625 21.582031 0 21.46875 0 L 20.21875 0 C 19.882812 0 19.664062 -0.09375 19.5625 -0.28125 C 19.46875 -0.476562 19.421875 -0.6875 19.421875 -0.90625 L 19.421875 -15.4375 C 19.421875 -16.175781 19.285156 -16.738281 19.015625 -17.125 C 18.753906 -17.519531 18.332031 -17.71875 17.75 -17.71875 C 17.457031 -17.71875 17.15625 -17.632812 16.84375 -17.46875 C 16.539062 -17.3125 16.300781 -17.140625 16.125 -16.953125 L 16.125 -2.71875 C 16.125 -2.269531 16.097656 -1.875 16.046875 -1.53125 C 15.992188 -1.195312 15.867188 -0.914062 15.671875 -0.6875 C 15.484375 -0.457031 15.207031 -0.285156 14.84375 -0.171875 C 14.476562 -0.0546875 13.984375 0 13.359375 0 L 4.359375 0 C 3.847656 0 3.425781 -0.0546875 3.09375 -0.171875 C 2.769531 -0.285156 2.507812 -0.453125 2.3125 -0.671875 C 2.113281 -0.898438 1.976562 -1.179688 1.90625 -1.515625 C 1.832031 -1.847656 1.796875 -2.242188 1.796875 -2.703125 L 1.796875 -29.15625 C 1.796875 -29.59375 1.832031 -29.984375 1.90625 -30.328125 C 1.976562 -30.671875 2.125 -30.953125 2.34375 -31.171875 C 2.570312 -31.390625 2.878906 -31.554688 3.265625 -31.671875 C 3.648438 -31.796875 4.15625 -31.859375 4.78125 -31.859375 L 13.296875 -31.859375 C 13.878906 -31.859375 14.351562 -31.804688 14.71875 -31.703125 C 15.09375 -31.597656 15.382812 -31.429688 15.59375 -31.203125 C 15.800781 -30.972656 15.941406 -30.691406 16.015625 -30.359375 C 16.085938 -30.023438 16.125 -29.625 16.125 -29.15625 Z M 16.125 -19.546875 "/></g></g></g><g fill="#f7961b" fill-opacity="1"><g transform="translate(178.490436, 90.846234)"><g><path d="M 15.171875 -9.84375 C 15.171875 -8.53125 15.304688 -7.4375 15.578125 -6.5625 C 15.859375 -5.695312 16.210938 -5.007812 16.640625 -4.5 C 17.066406 -3.988281 17.523438 -3.628906 18.015625 -3.421875 C 18.515625 -3.210938 18.976562 -3.109375 19.40625 -3.109375 C 19.726562 -3.109375 20.023438 -3.148438 20.296875 -3.234375 C 20.578125 -3.316406 20.816406 -3.410156 21.015625 -3.515625 C 21.222656 -3.628906 21.398438 -3.726562 21.546875 -3.8125 C 21.691406 -3.90625 21.800781 -3.953125 21.875 -3.953125 C 21.988281 -3.953125 22.066406 -3.929688 22.109375 -3.890625 C 22.160156 -3.847656 22.21875 -3.773438 22.28125 -3.671875 L 22.96875 -2.625 C 23.03125 -2.519531 23.0625 -2.429688 23.0625 -2.359375 C 23.0625 -2.265625 23.035156 -2.191406 22.984375 -2.140625 C 22.929688 -2.085938 22.878906 -2.039062 22.828125 -2 C 22.398438 -1.707031 21.875 -1.394531 21.25 -1.0625 C 20.632812 -0.726562 19.914062 -0.425781 19.09375 -0.15625 C 18.269531 0.113281 17.347656 0.335938 16.328125 0.515625 C 15.316406 0.703125 14.21875 0.796875 13.03125 0.796875 C 12.0625 0.796875 11.085938 0.71875 10.109375 0.5625 C 9.140625 0.40625 8.207031 0.15625 7.3125 -0.1875 C 6.425781 -0.539062 5.597656 -0.992188 4.828125 -1.546875 C 4.066406 -2.097656 3.40625 -2.765625 2.84375 -3.546875 C 2.28125 -4.328125 1.835938 -5.238281 1.515625 -6.28125 C 1.191406 -7.332031 1.03125 -8.519531 1.03125 -9.84375 C 1.03125 -11.164062 1.191406 -12.347656 1.515625 -13.390625 C 1.835938 -14.429688 2.28125 -15.34375 2.84375 -16.125 C 3.40625 -16.914062 4.066406 -17.585938 4.828125 -18.140625 C 5.597656 -18.691406 6.425781 -19.140625 7.3125 -19.484375 C 8.207031 -19.835938 9.140625 -20.09375 10.109375 -20.25 C 11.085938 -20.40625 12.0625 -20.484375 13.03125 -20.484375 C 14.09375 -20.484375 15.113281 -20.398438 16.09375 -20.234375 C 17.082031 -20.066406 17.992188 -19.847656 18.828125 -19.578125 C 19.671875 -19.316406 20.425781 -19.023438 21.09375 -18.703125 C 21.757812 -18.390625 22.300781 -18.082031 22.71875 -17.78125 C 22.769531 -17.738281 22.820312 -17.691406 22.875 -17.640625 C 22.925781 -17.585938 22.953125 -17.515625 22.953125 -17.421875 C 22.953125 -17.328125 22.914062 -17.238281 22.84375 -17.15625 L 22.171875 -16.109375 C 22.109375 -16.003906 22.050781 -15.929688 22 -15.890625 C 21.957031 -15.847656 21.878906 -15.828125 21.765625 -15.828125 C 21.679688 -15.828125 21.570312 -15.863281 21.4375 -15.9375 C 21.3125 -16.019531 21.148438 -16.109375 20.953125 -16.203125 C 20.765625 -16.304688 20.539062 -16.398438 20.28125 -16.484375 C 20.019531 -16.566406 19.726562 -16.609375 19.40625 -16.609375 C 18.976562 -16.609375 18.515625 -16.5 18.015625 -16.28125 C 17.523438 -16.070312 17.066406 -15.707031 16.640625 -15.1875 C 16.210938 -14.664062 15.859375 -13.96875 15.578125 -13.09375 C 15.304688 -12.226562 15.171875 -11.144531 15.171875 -9.84375 Z M 15.171875 -9.84375 "/></g></g></g><g fill="#f7961b" fill-opacity="1"><g transform="translate(201.938607, 90.846234)"><g><path d="M 9.921875 0 C 9.222656 0 8.519531 -0.0390625 7.8125 -0.125 C 7.101562 -0.21875 6.425781 -0.363281 5.78125 -0.5625 C 5.144531 -0.769531 4.546875 -1.035156 3.984375 -1.359375 C 3.429688 -1.679688 2.945312 -2.082031 2.53125 -2.5625 C 2.125 -3.039062 1.800781 -3.601562 1.5625 -4.25 C 1.332031 -4.90625 1.21875 -5.65625 1.21875 -6.5 C 1.21875 -7.625 1.429688 -8.585938 1.859375 -9.390625 C 2.296875 -10.191406 2.875 -10.859375 3.59375 -11.390625 C 4.3125 -11.921875 5.132812 -12.328125 6.0625 -12.609375 C 7 -12.898438 7.96875 -13.085938 8.96875 -13.171875 L 8.96875 -14.5 C 8.96875 -15.007812 8.898438 -15.410156 8.765625 -15.703125 C 8.640625 -16.003906 8.472656 -16.226562 8.265625 -16.375 C 8.066406 -16.53125 7.847656 -16.628906 7.609375 -16.671875 C 7.367188 -16.722656 7.140625 -16.75 6.921875 -16.75 C 6.660156 -16.75 6.382812 -16.707031 6.09375 -16.625 C 5.800781 -16.550781 5.519531 -16.457031 5.25 -16.34375 C 4.976562 -16.238281 4.71875 -16.117188 4.46875 -15.984375 C 4.226562 -15.859375 4.019531 -15.742188 3.84375 -15.640625 C 3.769531 -15.585938 3.703125 -15.539062 3.640625 -15.5 C 3.578125 -15.457031 3.507812 -15.4375 3.4375 -15.4375 C 3.320312 -15.4375 3.210938 -15.519531 3.109375 -15.6875 L 2.453125 -16.75 C 2.390625 -16.832031 2.359375 -16.925781 2.359375 -17.03125 C 2.359375 -17.132812 2.398438 -17.222656 2.484375 -17.296875 C 2.566406 -17.378906 2.644531 -17.445312 2.71875 -17.5 C 3.144531 -17.800781 3.6875 -18.109375 4.34375 -18.421875 C 5.007812 -18.734375 5.753906 -19.007812 6.578125 -19.25 C 7.398438 -19.5 8.289062 -19.703125 9.25 -19.859375 C 10.21875 -20.015625 11.210938 -20.09375 12.234375 -20.09375 C 13.203125 -20.09375 14.148438 -20.054688 15.078125 -19.984375 C 16.003906 -19.921875 16.878906 -19.78125 17.703125 -19.5625 C 18.523438 -19.351562 19.273438 -19.050781 19.953125 -18.65625 C 20.640625 -18.257812 21.234375 -17.738281 21.734375 -17.09375 C 22.234375 -16.445312 22.617188 -15.648438 22.890625 -14.703125 C 23.160156 -13.753906 23.296875 -12.617188 23.296875 -11.296875 L 23.296875 -2.625 C 23.296875 -2.195312 23.253906 -1.816406 23.171875 -1.484375 C 23.097656 -1.148438 22.953125 -0.875 22.734375 -0.65625 C 22.515625 -0.4375 22.207031 -0.269531 21.8125 -0.15625 C 21.425781 -0.0507812 20.921875 0 20.296875 0 Z M 8.96875 -10.703125 C 8.03125 -10.703125 7.242188 -10.582031 6.609375 -10.34375 C 5.972656 -10.113281 5.460938 -9.800781 5.078125 -9.40625 C 4.691406 -9.019531 4.410156 -8.570312 4.234375 -8.0625 C 4.066406 -7.550781 3.984375 -7.019531 3.984375 -6.46875 C 3.984375 -5.925781 4.066406 -5.410156 4.234375 -4.921875 C 4.410156 -4.441406 4.691406 -4.019531 5.078125 -3.65625 C 5.460938 -3.289062 5.972656 -3.003906 6.609375 -2.796875 C 7.242188 -2.585938 8.03125 -2.484375 8.96875 -2.484375 Z M 8.96875 -10.703125 "/></g></g></g><g fill="#f7961b" fill-opacity="1"><g transform="translate(227.019984, 90.846234)"><g><path d="M 1.796875 -17.203125 C 1.796875 -17.648438 1.832031 -18.046875 1.90625 -18.390625 C 1.976562 -18.734375 2.125 -19.015625 2.34375 -19.234375 C 2.570312 -19.453125 2.878906 -19.617188 3.265625 -19.734375 C 3.648438 -19.859375 4.15625 -19.921875 4.78125 -19.921875 L 13.296875 -19.921875 C 13.898438 -19.921875 14.378906 -19.859375 14.734375 -19.734375 C 15.097656 -19.617188 15.382812 -19.441406 15.59375 -19.203125 C 15.800781 -18.972656 15.941406 -18.679688 16.015625 -18.328125 C 16.085938 -17.984375 16.125 -17.578125 16.125 -17.109375 L 16.125 -15.671875 L 20.4375 -19.875 C 20.71875 -20.144531 20.984375 -20.28125 21.234375 -20.28125 C 21.378906 -20.28125 21.503906 -20.25 21.609375 -20.1875 C 21.722656 -20.132812 21.816406 -20.066406 21.890625 -19.984375 L 22.765625 -19.078125 C 22.960938 -18.878906 23.0625 -18.664062 23.0625 -18.4375 C 23.0625 -18.289062 23.019531 -18.144531 22.9375 -18 C 22.851562 -17.851562 22.722656 -17.707031 22.546875 -17.5625 L 16.125 -12.578125 L 16.125 -2.734375 C 16.125 -2.285156 16.085938 -1.890625 16.015625 -1.546875 C 15.953125 -1.203125 15.8125 -0.914062 15.59375 -0.6875 C 15.375 -0.457031 15.054688 -0.285156 14.640625 -0.171875 C 14.222656 -0.0546875 13.660156 0 12.953125 0 L 4.78125 0 C 4.15625 0 3.648438 -0.0546875 3.265625 -0.171875 C 2.878906 -0.285156 2.570312 -0.453125 2.34375 -0.671875 C 2.125 -0.898438 1.976562 -1.179688 1.90625 -1.515625 C 1.832031 -1.847656 1.796875 -2.242188 1.796875 -2.703125 Z M 1.796875 -17.203125 "/></g></g></g><g fill="#f7961b" fill-opacity="1"><g transform="translate(248.621083, 90.846234)"><g><path d="M 23.859375 -2.703125 C 23.859375 -2.242188 23.816406 -1.847656 23.734375 -1.515625 C 23.660156 -1.179688 23.515625 -0.898438 23.296875 -0.671875 C 23.078125 -0.453125 22.769531 -0.285156 22.375 -0.171875 C 21.988281 -0.0546875 21.484375 0 20.859375 0 L 12.375 0 C 11.425781 -0.0195312 10.488281 -0.101562 9.5625 -0.25 C 8.632812 -0.40625 7.75 -0.640625 6.90625 -0.953125 C 6.070312 -1.273438 5.296875 -1.691406 4.578125 -2.203125 C 3.859375 -2.710938 3.234375 -3.332031 2.703125 -4.0625 C 2.179688 -4.800781 1.769531 -5.664062 1.46875 -6.65625 C 1.175781 -7.644531 1.03125 -8.785156 1.03125 -10.078125 C 1.03125 -11.671875 1.253906 -13.039062 1.703125 -14.1875 C 2.160156 -15.332031 2.773438 -16.289062 3.546875 -17.0625 C 4.328125 -17.84375 5.234375 -18.460938 6.265625 -18.921875 C 7.296875 -19.378906 8.382812 -19.710938 9.53125 -19.921875 L 9.53125 -29.125 C 9.53125 -29.582031 9.5625 -29.984375 9.625 -30.328125 C 9.6875 -30.671875 9.820312 -30.957031 10.03125 -31.1875 C 10.238281 -31.414062 10.523438 -31.582031 10.890625 -31.6875 C 11.253906 -31.800781 11.738281 -31.859375 12.34375 -31.859375 L 20.859375 -31.859375 C 21.484375 -31.859375 21.988281 -31.796875 22.375 -31.671875 C 22.769531 -31.554688 23.078125 -31.390625 23.296875 -31.171875 C 23.515625 -30.953125 23.660156 -30.671875 23.734375 -30.328125 C 23.816406 -29.984375 23.859375 -29.59375 23.859375 -29.15625 Z M 3.796875 -10.046875 C 3.796875 -9.085938 3.90625 -8.191406 4.125 -7.359375 C 4.34375 -6.523438 4.679688 -5.785156 5.140625 -5.140625 C 5.597656 -4.503906 6.191406 -3.976562 6.921875 -3.5625 C 7.648438 -3.144531 8.519531 -2.878906 9.53125 -2.765625 L 9.53125 -17.421875 C 8.519531 -17.304688 7.648438 -17.035156 6.921875 -16.609375 C 6.191406 -16.191406 5.597656 -15.660156 5.140625 -15.015625 C 4.679688 -14.367188 4.34375 -13.625 4.125 -12.78125 C 3.90625 -11.9375 3.796875 -11.023438 3.796875 -10.046875 Z M 3.796875 -10.046875 "/></g></g></g><g fill="#f7961b" fill-opacity="1"><g transform="translate(274.266312, 90.846234)"><g><path d="M 15.65625 -20.59375 C 16.488281 -20.59375 17.316406 -20.539062 18.140625 -20.4375 C 18.972656 -20.34375 19.757812 -20.21875 20.5 -20.0625 C 21.25 -19.914062 21.929688 -19.742188 22.546875 -19.546875 C 23.160156 -19.359375 23.664062 -19.175781 24.0625 -19 C 24.125 -18.976562 24.191406 -18.941406 24.265625 -18.890625 C 24.335938 -18.835938 24.375 -18.738281 24.375 -18.59375 C 24.375 -18.550781 24.363281 -18.5 24.34375 -18.4375 C 24.332031 -18.375 24.320312 -18.304688 24.3125 -18.234375 L 24.078125 -17.09375 C 24.046875 -16.9375 24.007812 -16.84375 23.96875 -16.8125 C 23.925781 -16.78125 23.882812 -16.765625 23.84375 -16.765625 C 23.78125 -16.765625 23.65625 -16.78125 23.46875 -16.8125 C 23.289062 -16.851562 23.097656 -16.875 22.890625 -16.875 C 22.148438 -16.875 21.566406 -16.675781 21.140625 -16.28125 C 20.710938 -15.882812 20.441406 -15.195312 20.328125 -14.21875 L 19.234375 -5.140625 C 19.128906 -4.328125 18.859375 -3.570312 18.421875 -2.875 C 17.992188 -2.175781 17.367188 -1.5625 16.546875 -1.03125 C 15.734375 -0.5 14.726562 -0.0820312 13.53125 0.21875 C 12.332031 0.53125 10.925781 0.6875 9.3125 0.6875 C 8.300781 0.6875 7.316406 0.625 6.359375 0.5 C 5.398438 0.375 4.515625 0.222656 3.703125 0.046875 C 2.890625 -0.128906 2.179688 -0.300781 1.578125 -0.46875 C 0.984375 -0.644531 0.535156 -0.785156 0.234375 -0.890625 C 0.128906 -0.921875 0.0507812 -0.957031 0 -1 C -0.0625 -1.039062 -0.09375 -1.113281 -0.09375 -1.21875 C -0.09375 -1.269531 -0.0859375 -1.328125 -0.078125 -1.390625 C -0.0664062 -1.460938 -0.046875 -1.546875 -0.015625 -1.640625 L 0.21875 -2.71875 C 0.238281 -2.820312 0.28125 -2.90625 0.34375 -2.96875 C 0.414062 -3.039062 0.535156 -3.078125 0.703125 -3.078125 C 1.128906 -3.078125 1.554688 -3.097656 1.984375 -3.140625 C 2.421875 -3.179688 2.820312 -3.300781 3.1875 -3.5 C 3.5625 -3.695312 3.890625 -3.992188 4.171875 -4.390625 C 4.453125 -4.796875 4.644531 -5.363281 4.75 -6.09375 L 6.109375 -15.453125 C 6.253906 -16.441406 6.617188 -17.265625 7.203125 -17.921875 C 7.785156 -18.585938 8.503906 -19.117188 9.359375 -19.515625 C 10.222656 -19.910156 11.195312 -20.1875 12.28125 -20.34375 C 13.375 -20.507812 14.5 -20.59375 15.65625 -20.59375 Z M 15.65625 -20.59375 "/></g></g></g></svg>